<svg xmlns="http://www.w3.org/2000/svg" width="19" height="22" viewBox="0 0 19 22">
    <g fill="var(--color-primary)" transform="matrix(-1 0 0 1 19 0)">
        <path
            d="M9.42483339,11.863747 C9.44761115,11.863747 9.47038891,11.863747 9.49772222,11.863747 C9.50683333,11.863747 9.51594443,11.863747 9.52505554,11.863747 C9.53872219,11.863747 9.5569444,11.863747 9.57061106,11.863747 C10.9053878,11.8419688 11.9850537,11.3933396 12.7822753,10.5352817 C14.5361628,8.64494091 14.2446075,5.40435675 14.2127186,5.09510745 C14.0988298,2.77355992 12.9508307,1.66287583 12.0032759,1.14455659 C11.2971653,0.756906067 10.4726104,0.547836121 9.55238885,0.530413625 L9.52049998,0.530413625 C9.51594443,0.530413625 9.50683333,0.530413625 9.50227778,0.530413625 L9.47494446,0.530413625 C8.96927818,0.530413625 7.97616783,0.608814855 7.02405744,1.1271341 C6.0673915,1.64545334 4.90117017,2.75613743 4.78728136,5.09510745 C4.7553925,5.40435675 4.46383717,8.64494091 6.21772472,10.5352817 C7.01039078,11.3933396 8.09005663,11.8419688 9.42483339,11.863747 Z M6.00361377,5.20399805 C6.00361377,5.19093118 6.00816932,5.1778643 6.00816932,5.16915306 C6.15850254,2.04617074 8.47727856,1.7107877 9.47038891,1.7107877 L9.48861112,1.7107877 C9.49772222,1.7107877 9.51138888,1.7107877 9.52505554,1.7107877 C10.7550546,1.73692144 12.846053,2.21604007 12.9872751,5.16915306 C12.9872751,5.18221993 12.9872751,5.1952868 12.9918307,5.20399805 C12.9963862,5.23448741 13.3152749,8.19631165 11.8666093,9.755625 C11.2926097,10.3741236 10.527277,10.6790173 9.52049998,10.6877285 C9.51138888,10.6877285 9.50683333,10.6877285 9.49772222,10.6877285 L9.49772222,10.6877285 C9.48861112,10.6877285 9.48405557,10.6877285 9.47494446,10.6877285 C8.472723,10.6790173 7.7028347,10.3741236 7.13339069,9.755625 C5.68928068,8.2050229 5.99905822,5.23013179 6.00361377,5.20399805 Z" />
        <path
            d="M18.9987046,17.4238906 C18.9987046,17.4194195 18.9987046,17.4149483 18.9987046,17.4104771 C18.9987046,17.3747079 18.9940789,17.3389387 18.9940789,17.2986983 C18.9663252,16.4134097 18.906192,14.3432652 16.8986704,13.6815344 C16.8847935,13.6770632 16.866291,13.672592 16.8524141,13.6681209 C14.7662569,13.1539381 13.0316471,11.991438 13.0131446,11.9780245 C12.7309815,11.7857649 12.3424289,11.8528322 12.143527,12.1255726 C11.944625,12.398313 12.0140094,12.77389 12.2961726,12.9661496 C12.3748083,13.0198035 14.2158074,14.2583133 16.5193691,14.830621 C17.5971399,15.2017269 17.7174062,16.3150443 17.7497856,17.3344675 C17.7497856,17.3747079 17.7497856,17.4104771 17.7544112,17.4462464 C17.7590368,17.8486503 17.7312831,18.4701407 17.6572731,18.8278331 C16.9079217,19.2391793 13.9706492,20.6610064 9.50229456,20.6610064 C5.05244243,20.6610064 2.09666748,19.2347082 1.34269045,18.8233619 C1.26868044,18.4656696 1.23630106,17.8441791 1.24555231,17.4417752 C1.24555231,17.406006 1.25017793,17.3702368 1.25017793,17.3299964 C1.28255731,16.3105732 1.40282359,15.1972557 2.48059443,14.8261499 C4.78415613,14.2538421 6.62515525,13.0108612 6.70379089,12.9616785 C6.98595407,12.7694188 7.05533846,12.3938419 6.85643654,12.1211015 C6.65753463,11.848361 6.26898205,11.7812937 5.98681887,11.9735534 C5.96831637,11.9869668 4.2429579,13.149467 2.14754936,13.6636497 C2.12904686,13.6681209 2.11516998,13.672592 2.1012931,13.6770632 C0.0937714542,14.3432652 0.0336383173,16.4134097 0.00588456183,17.2942271 C0.00588456183,17.3344675 0.00588456183,17.3702368 0.00125893591,17.406006 C0.00125893591,17.4104771 0.00125893591,17.4149483 0.00125893591,17.4194195 C-0.00336669,17.6519195 -0.00799231591,18.8457177 0.237165858,19.4448524 C0.283422117,19.5611024 0.366683383,19.6594678 0.477698405,19.7265351 C0.616467183,19.8159582 3.94229221,21.863747 9.50692019,21.863747 C15.0715482,21.863747 18.3973732,19.8114871 18.536142,19.7265351 C18.6425314,19.6594678 18.7304183,19.5611024 18.7766745,19.4448524 C19.0079558,18.8501889 19.0033302,17.6563906 18.9987046,17.4238906 Z" />
    </g>
</svg>