<svg xmlns="http://www.w3.org/2000/svg" width="60" height="24">
  <path
    fill="#06344F"
    d="M14.403 10.417a8.12 8.12 0 00-2.734-.668L6.25 9.123a6.006 6.006 0 01-1.659-.357 1.18 1.18 0 01-.673-.735 6.06 6.06 0 01-.164-1.67 5.761 5.761 0 01.164-1.581c.125-.377.397-.689.755-.865a4.26 4.26 0 011.577-.457 23.326 23.326 0 012.759-.13c1.072 0 2.21.038 3.415.113 1.204.075 2.209.178 3.013.31V.617a28.922 28.922 0 00-3.25-.437A43.812 43.812 0 008.276 0c-1.86 0-3.371.152-4.53.457a4.712 4.712 0 00-2.734 1.88C.34 3.279.002 4.674.002 6.52a10.74 10.74 0 00.422 3.223c.26.829.792 1.547 1.512 2.038.732.51 1.788.842 3.17.994l5.384.626c.743.065 1.275.186 1.592.36.318.169.548.465.631.814.117.58.167 1.171.147 1.762a6.868 6.868 0 01-.164 1.71c-.102.39-.356.725-.706.93-.473.274-1 .447-1.544.507-.915.112-1.837.16-2.759.146-1.99 0-4.333-.13-7.027-.392v3.228c1.14.149 2.463.268 3.97.359 1.507.09 2.886.134 4.138.132 1.772 0 3.195-.147 4.269-.441a4.336 4.336 0 002.565-1.915c.633-.988.95-2.472.95-4.45 0-1.783-.196-3.105-.59-3.967a3.259 3.259 0 00-1.558-1.767zm41.983-.774H46.059V0h-3.645v22.957h3.645v-9.81h10.327v9.81H60V0h-3.614z"
  ></path>
  <g fill="#34A1AD" transform="translate(19.655)">
    <ellipse cx="14.483" cy="21.913" rx="2.069" ry="2.087"></ellipse>
    <path d="M11.977 4.73v7.556h3.718V0H11.32L0 14.765v2.974h19.655v-3.338H4.375z"></path>
  </g>
</svg>
