<svg xmlns="http://www.w3.org/2000/svg"
  xmlns:xlink="http://www.w3.org/1999/xlink" width="24" height="24" viewBox="0 0 24 24">
  <defs>
    <path id="xut39l4xja" d="M8.749 15.498v1.84H6.295v-1.84h2.454zm8.588 0v1.84h-2.453v-1.84h2.453zm-4.294 0v1.84h-2.454v-1.84h2.454zM8.748 12.43v1.84H6.295v-1.84h2.454zm8.588 0v1.84h-2.453v-1.84h2.453zm-4.294 0v1.84h-2.454v-1.84h2.454zM8.748 9.363v1.84H6.295v-1.84h2.454zm4.293 0v1.84H10.59v-1.84h2.454zm4.295 0v1.84h-2.453v-1.84h2.453zm3-5.489h-2.712V2.625c0-.223-.12-.43-.313-.541-.193-.112-.432-.112-.625 0-.194.111-.313.318-.313.541v1.25h-3.749v-1.25c0-.345-.28-.625-.625-.625s-.625.28-.625.625v1.25h-3.75v-1.25c0-.345-.28-.625-.626-.625-.345 0-.625.28-.625.625v1.25H3.667C2.747 3.875 2 4.621 2 5.541v14.792C2 21.253 2.746 22 3.667 22h16.67c.919-.002 1.663-.748 1.663-1.667V5.541c0-.92-.744-1.666-1.663-1.667zm.413 16.46c0 .23-.187.416-.417.416H3.667c-.23 0-.416-.187-.417-.417V5.541c0-.23.187-.417.417-.417h2.708v1.25c0 .346.28.626.626.626.345 0 .625-.28.625-.625v-1.25h3.749v1.25c0 .345.28.625.625.625s.625-.28.625-.625v-1.25h3.75v1.25c0 .345.28.625.626.625.345 0 .625-.28.625-.625v-1.25h2.71c.23 0 .417.186.417.416l-.003 14.792z"/>
  </defs>
  <g fill="none" fill-rule="evenodd">
    <g>
      <g>
        <g>
          <g transform="translate(-578 -245) translate(134 48) translate(32 173) translate(412 24)">
            <path d="M0 0H24V24H0z"/>
            <mask id="s8thpwmm4b" fill="#fff">
              <use xlink:href="#xut39l4xja"/>
            </mask>
            <use fill="#020C7C" fill-rule="nonzero" xlink:href="#xut39l4xja"/>
            <path fill="currentColor" d="M2 2H22V22H2z" mask="url(#s8thpwmm4b)"/>
          </g>
        </g>
      </g>
    </g>
  </g>
</svg>
