<?xml version="1.0" encoding="UTF-8"?>
<svg width="270px" height="160px" viewBox="0 0 270 160" version="1.1" xmlns="http://www.w3.org/2000/svg" xmlns:xlink="http://www.w3.org/1999/xlink">
    <title>0. Images/Empty state/Medication reminder Copy</title>
    <defs>
        <polygon id="path-1" points="0.13554173 -0.00300517136 51.6204875 -0.00300517136 51.6204875 99.5844715 0.13554173 99.5844715"></polygon>
    </defs>
    <g id="Medication" stroke="none" stroke-width="1" fill="none" fill-rule="evenodd">
        <g id="D-Medication/Empty-state" transform="translate(-585.000000, -432.000000)">
            <g id="Group-4" transform="translate(564.000000, 307.000000)">
                <g id="0.-Images/Empty-state/Medication-reminder-Copy" transform="translate(21.000000, 125.000000)">
                    <g id="login-to-share_270x160">
                        <rect id="Rectangle" x="0" y="0" width="270" height="160"></rect>
                    </g>
                    <g id="Group-5" transform="translate(87.000000, 30.000000)">
                        <g id="Group-3" transform="translate(43.755306, 0.000000)">
                            <mask id="mask-2" fill="white">
                                <use xlink:href="#path-1"></use>
                            </mask>
                            <g id="Clip-2"></g>
                            <path d="M9.8394756,99.5844715 L9.8394756,96.464522 L10.5073307,96.464522 C21.9142949,96.4516297 33.3212591,96.4451835 44.7215448,96.4322911 C45.5630422,96.425845 46.4045396,96.3807217 47.2460369,96.3355985 C48.0808557,96.2904753 48.241141,96.1679979 48.3079265,95.3880105 C48.3813905,94.6144694 48.4147833,93.8280358 48.4214618,93.0480485 C48.4548546,82.4827651 48.5016044,71.9110356 48.508283,61.3457523 C48.5149615,44.4052003 48.4949259,27.4646484 48.4748902,10.5369888 C48.4748902,8.62247441 48.4214618,6.70795998 48.374712,4.79344555 C48.3346407,3.28504024 48.2144268,3.16256289 46.6249317,3.13677818 C43.7999049,3.09165495 40.9815566,3.04008553 38.1565297,3.04008553 C28.1186683,3.04008553 18.0808069,3.05297789 8.04294552,3.07231642 C6.86752063,3.07876259 5.69209574,3.11743965 4.52334941,3.20123995 C3.7152448,3.25925554 3.48817408,3.50421024 3.44142423,4.29064378 C3.38131727,5.10286202 3.36128162,5.91508027 3.35460307,6.72729851 C3.34124597,9.44113883 3.34792452,12.148533 3.34124597,14.8559271 L3.34124597,15.4747601 L0.175613033,15.4747601 C0.155577381,15.3522827 0.13554173,15.2555901 0.13554173,15.1524512 C0.175613033,11.5168077 0.242398538,7.87471793 0.235719987,4.23262819 C0.235719987,2.47926818 2.63331962,0.0490596224 4.67695607,0.0555057989 C13.4125001,0.0877366816 22.1480442,0.00393638664 30.8902668,-0.00300517136 C35.7255373,-0.00895596642 40.574165,0.0490596224 45.4161141,0.081290505 C46.2442544,0.0877366816 47.0723946,0.100629035 47.8871778,0.203767859 C48.3479978,0.261783448 48.8555676,0.416491685 49.236245,0.680784923 C49.8172789,1.0997864 50.3315273,1.62837287 50.82574,2.144067 C51.2598458,2.58885318 51.4401666,3.14322436 51.4535237,3.77494966 C51.5069522,7.68133264 51.6204875,11.5941618 51.6204875,15.5069909 C51.6271661,40.0153541 51.613809,64.5301635 51.5937733,89.0320805 C51.5870948,91.2495652 51.4869165,93.4734961 51.4602023,95.6909808 C51.4468452,96.3871679 51.1797032,96.9608776 50.7455974,97.4959103 C49.7438148,98.7077915 48.5416757,99.423317 46.8453239,99.4168709 C42.1035531,99.4039785 37.3684607,99.4813326 32.6333684,99.532902 C32.3996192,99.532902 32.179227,99.5651329 31.9521563,99.5844715 L9.8394756,99.5844715 Z" id="Fill-1" fill="#06344F" mask="url(#mask-2)"></path>
                        </g>
                        <path d="M16.6808088,17.8575611 C25.2121143,17.8518151 33.7368371,17.8905809 42.2615598,17.9164247 C43.0909923,17.9228857 43.9204247,17.9681124 44.7498572,18.0004172 C46.0400855,18.0521048 47.422473,19.221538 47.4751354,20.4878856 C47.5738773,22.7427596 47.6199569,25.0040946 47.5409634,27.2525076 C47.488301,28.8935907 46.3560598,29.9790315 44.6840293,30.2374697 C44.1113259,30.3279231 43.5188741,30.3343841 42.807932,30.3860718 C42.8869255,32.0723815 42.8671772,33.7716132 43.0844095,35.4450011 C43.1765686,36.1427845 43.6966096,36.8405678 44.1574055,37.4349759 C45.309395,38.920996 46.5535437,40.3359456 47.7252817,41.8025828 C48.4559722,42.7329606 49.114252,43.7085651 49.8120285,44.6583258 C50.4110631,45.4853283 50.5690502,46.4415499 50.6217126,47.4042325 C50.7138717,49.4071292 50.8126137,51.4164868 50.8126137,53.4129226 C50.7928653,65.8761086 50.7599513,78.3392947 50.7072889,90.7960199 C50.6941234,92.4435639 50.5361362,94.084647 50.4176459,95.7257301 C50.3781491,96.3265991 50.0095124,96.7530222 49.6408758,97.2246721 C48.6007938,98.5750121 47.1525783,98.7688408 45.6187865,98.7882237 C42.0048307,98.8334504 38.3908749,98.891599 34.7769191,98.89806 C25.9033081,98.9045209 17.0296971,98.89806 8.15608607,98.8592942 C6.54988349,98.8528333 4.9502637,98.7106922 3.34406112,98.6073169 C2.67261577,98.5620902 2.12624358,98.2648862 1.70494455,97.7350877 C1.59961979,97.6058685 1.48112943,97.4701885 1.34289068,97.3797351 C0.612200165,96.8693194 0.355471064,96.1327703 0.296225886,95.3122288 C0.223815114,94.226788 0.111907557,93.1413473 0.10532476,92.0559065 C0.0592451773,77.996864 0.0263311899,63.9378215 -1.91846539e-13,49.8787791 C-1.91846539e-13,49.1680738 0.0724107722,48.4573685 0.0592451773,47.7402023 C0.0460795823,46.6159958 0.335722671,45.5757817 1.00716801,44.6841696 C1.73785853,43.7053346 2.48006895,42.7361911 3.22639361,41.770278 L5.4703047,38.8757693 C5.9903457,38.2038297 6.54330069,37.5448121 7.05675889,36.8664116 C7.60313108,36.1298625 7.87960858,35.30286 7.87960858,34.3918651 C7.87302578,33.054447 7.87960858,31.7234899 7.87960858,30.3796108 C7.24107722,30.3343841 6.62887706,30.3279231 6.04300808,30.2310088 C4.4236399,29.9661095 3.29798153,28.8548249 3.25190195,27.2912733 C3.18607398,25.0234774 3.21898797,22.7492206 3.29798153,20.4749637 C3.33747832,19.2861476 4.73961418,18.0456439 5.94426612,18.0198 C9.51872515,17.9487295 13.099767,17.8647371 16.6808088,17.8575611 Z M39.55603,36.5562857 C30.129464,36.5692076 20.7028981,36.5692076 11.2763321,36.5692076 C11.2105041,36.5692076 11.1249277,36.5433638 11.0722654,36.5756686 C10.9011126,36.6467391 10.6641319,36.7048877 10.5917211,36.8470288 C9.49239396,38.9468398 7.97176774,40.7429859 6.46430712,42.5649757 C5.55588107,43.6762603 4.66062061,44.7940059 3.78510855,45.9375953 C3.07416642,46.8615121 3.06100083,47.940492 3.17290838,49.0905423 L3.17290838,49.0905423 L31.7290838,49.0905423 L31.7290838,52.1724188 L31.0115589,52.1724188 C21.9207156,52.1724188 12.8167067,52.1788798 3.71928057,52.1659579 C3.25190195,52.1659579 3.11366321,52.2757941 3.11366321,52.7539049 C3.1399944,64.926348 3.1399944,77.098791 3.15974279,89.271234 C3.16632559,91.0996848 3.23215356,92.9345966 3.29798153,94.7695084 C3.32431272,95.4866746 3.55471064,95.6869643 4.29198395,95.732191 C5.2135756,95.7903396 6.12858445,95.8355663 7.0435933,95.8420273 C17.2140154,95.8549492 27.3844375,95.8678711 37.5548596,95.8614102 C40.4907873,95.8614102 43.4332977,95.7968006 46.3692254,95.738652 C47.2513203,95.7192691 47.4619698,95.4931356 47.5080494,94.6273674 C47.554129,93.6517629 47.6067913,92.6632364 47.6067913,91.681171 C47.6199569,79.948073 47.6331225,68.2149751 47.6265397,56.4883381 C47.6265397,53.7165875 47.521215,50.9512979 47.554129,48.1860083 C47.5672946,46.9261217 47.1196643,45.9246734 46.3363114,44.9878346 C45.0592487,43.4695097 43.7756032,41.9576458 42.5709513,40.3876332 C41.7546844,39.3215753 41.0371595,38.1779859 40.3328001,37.0279356 C40.1221506,36.6919658 39.9575807,36.5562857 39.55603,36.5562857 Z M40.9323833,49.4501213 L40.9323833,89.2849413 L5.64584597,89.2849413 L5.64584597,86.2471232 L37.7130272,86.2471232 L37.7130272,52.4879395 L34.5801414,52.4879395 L34.5801414,49.4501213 L40.9323833,49.4501213 Z M79.6395593,76.9228279 C82.528599,76.884156 86.3009543,79.5396256 86.0884272,83.2714628 C86.3009543,85.8302527 83.3255755,89.278496 79.7391814,89.2849413 C76.106297,89.2849413 73.3500868,85.7786902 73.3965771,83.0587674 C73.4430673,79.9714617 76.5047853,76.9679451 79.6395593,76.9228279 Z M59.9555524,76.9224225 C62.8595022,76.915989 66.5542301,79.6035776 66.3150031,83.2450346 C66.653908,85.8939529 63.298085,89.3485032 59.9688428,89.2840527 C56.2940505,89.2196021 53.5961017,85.7521616 53.6359729,83.0387928 C53.6824892,79.9322755 56.7990852,76.9288791 59.9555524,76.9224225 Z M79.8255205,80.0488055 C77.7600232,80.0101336 76.6641806,81.0736105 76.6243317,83.1361112 C76.5844829,85.0503696 77.686967,86.1396278 79.7059741,86.184745 C81.7648299,86.2298622 82.8872384,85.1728306 82.9337287,83.1618924 C82.9735775,81.1896262 81.8710934,80.0810321 79.8255205,80.0488055 Z M60.0751659,80.0482865 C58.0151557,80.0096162 56.8987631,81.0859406 56.8721824,83.1354686 C56.8456016,85.0818757 57.9487038,86.1517551 60.008714,86.1839804 C62.0487885,86.2097607 63.1518908,85.1398813 63.1784715,83.1161335 C63.2050523,81.1632813 62.1085953,80.0805118 60.0751659,80.0482865 Z M59.9109792,59.75223 C62.9855651,59.7586687 66.5449129,62.5144672 66.325774,66.0751134 C66.5581941,68.6570648 63.6230602,72.0953741 60.0105878,72.1147255 C56.2520228,72.127568 53.6223553,68.5862382 53.6355864,65.9205826 C53.6555582,62.8235287 56.7699875,59.75223 59.9109792,59.75223 Z M79.6588964,59.75223 C82.7470204,59.7586688 86.2867409,62.5144789 86.0875071,66.07514 C86.3066643,68.6249083 83.4044919,72.1211814 79.7186666,72.1147514 C75.9465066,72.1018649 73.3631084,68.5025709 73.396314,65.9206086 C73.4295196,62.8171029 76.5242847,59.75223 79.6588964,59.75223 Z M79.9710294,62.881491 C77.8060221,62.8171029 76.6836717,63.8408734 76.6239016,65.9270475 C76.5774137,67.9037617 77.6599173,68.9597263 79.7717956,69.004798 C81.7508514,69.0498696 82.8798429,67.993905 82.939613,66.042946 C82.9861009,64.091987 81.9035973,62.9394402 79.9710294,62.881491 Z M60.116837,62.8814778 C57.9984938,62.8557226 56.8961585,63.905244 56.8695962,65.9720929 C56.8496744,67.94236 57.9387286,68.9790039 60.0637124,69.004759 C62.0558847,69.0305141 63.1449389,67.9552376 63.1715012,65.9463378 C63.1980635,64.0147033 62.0957282,62.9072329 60.116837,62.8814778 Z M59.9459611,42.5821512 C62.8419742,42.5629207 66.5549818,45.2567842 66.3158615,48.8851218 C66.647973,51.5532067 63.3002882,55.0268727 59.9326766,54.9430923 C56.2927336,54.8528672 53.6026297,51.4114244 53.6358409,48.698227 C53.6756942,45.6047952 56.790901,42.6015886 59.9459611,42.5821512 Z M79.6990911,42.5820955 C82.5681584,42.5692529 86.2806783,45.2116222 86.0814376,48.88516 C86.3736574,51.6435357 82.9998468,55.0206126 79.6924498,54.9432749 C76.0064953,54.8594925 73.3565928,51.3470748 73.396441,48.7111503 C73.4562132,45.6047552 76.5444454,42.6014769 79.6990911,42.5820955 Z M60.8625891,45.7723561 C60.4175596,45.701465 59.9592456,45.6950203 59.514216,45.7336882 C58.3053298,45.8239133 57.3953441,46.3845978 57.0698747,47.5317454 C56.704552,48.8142306 56.6713408,50.0902712 57.7673091,51.1214151 C57.966576,51.2954207 58.2189808,51.4436476 58.4713856,51.546762 C59.3747292,51.8947731 60.2979994,51.9527749 61.2345541,51.6885443 C62.5098626,51.3340886 63.1608013,50.3222786 63.180728,48.7304502 C63.1940125,47.0935093 62.3438068,45.9914742 60.8625891,45.7723561 Z M79.8186356,45.6949824 C77.8063037,45.6627584 76.6839139,46.7390405 76.6307831,48.7562639 C76.5776522,50.7025945 77.6801178,51.7917662 79.7256566,51.8433246 C81.7446298,51.8884382 82.8869437,50.8314905 82.9400745,48.8593808 C82.9932054,46.8614918 81.8840984,45.7336512 79.8186356,45.6949824 Z M59.9054628,26.0986752 C62.9605069,26.105114 66.5601457,28.8480464 66.3276967,32.4730957 C66.5402215,34.9777923 63.6445711,38.4676265 59.9652354,38.4611966 C56.23941,38.4483101 53.5961328,34.9069654 53.6359812,32.2219822 C53.682471,29.1506704 56.7906462,26.0986752 59.9054628,26.0986752 Z M79.6589187,26.0986852 C82.7337729,26.1115729 86.2867901,28.8544891 86.0875555,32.4280068 C86.3067136,34.9777599 83.3912471,38.4740123 79.7186891,38.4611702 C75.9730784,38.4482572 73.363105,34.8683008 73.3963108,32.2605987 C73.4295166,29.1635501 76.5309354,26.0922566 79.6589187,26.0986852 Z M60.124629,29.2279361 C57.999381,29.2021809 56.8969086,30.2452679 56.870343,32.3121255 C56.8504188,34.2888397 57.932967,35.3254879 60.058215,35.3512432 C62.0572765,35.3769984 63.1464661,34.3081562 63.1730317,32.2992479 C63.1995973,30.3611665 62.1037663,29.2536914 60.124629,29.2279361 Z M79.9511295,29.2279378 C77.7861134,29.1764276 76.6703996,30.2001922 76.6239115,32.2927926 C76.5774234,34.2437401 77.6599315,35.2932596 79.7319714,35.3447698 C81.7575233,35.39628 82.8865194,34.3467604 82.9330075,32.3700578 C82.9794956,30.4255491 81.8903464,29.279448 79.9511295,29.2279378 Z M39.6811032,30.3602279 L11.1117621,30.3602279 L11.1117621,33.4033387 L39.6811032,33.4033387 L39.6811032,30.3602279 Z M17.3917509,20.9983012 L14.3044189,20.9983012 L14.3044189,27.2008199 L17.3917509,27.2008199 L17.3917509,20.9983012 Z M23.7704817,21.0047622 L20.6634013,21.0047622 L20.6634013,27.1814371 L23.7704817,27.1814371 L23.7704817,21.0047622 Z M30.1360468,20.9983012 L27.0158008,20.9983012 L27.0158008,27.1814371 L30.1360468,27.1814371 L30.1360468,20.9983012 Z M36.4818636,20.9853793 L33.381366,20.9853793 L33.381366,27.1814371 L36.4818636,27.1814371 L36.4818636,20.9853793 Z M44.4536313,20.9983012 L39.7469312,20.9983012 L39.7469312,27.1749761 L44.4536313,27.1749761 L44.4536313,20.9983012 Z M11.052517,20.9853793 L6.33923397,20.9853793 L6.33923397,27.1685152 L11.052517,27.1685152 L11.052517,20.9853793 Z M59.8653774,9.61602904 C62.7810055,9.56446812 66.5467484,12.2585261 66.3275782,15.9451317 C66.5467484,18.600519 63.4916484,21.9648689 60.0048494,21.9777955 C56.4383522,21.9906494 53.6223469,18.5747386 53.6355832,15.7711136 C53.6555545,12.6903488 56.7372207,9.66758996 59.8653774,9.61602904 Z M79.6794563,9.61548782 C82.555049,9.58972182 86.2740602,12.2371788 86.0814685,15.8959514 C86.3736766,18.6915629 82.993361,22.047585 79.7126618,21.9767285 C76.0002917,21.8994304 73.337214,18.3437218 73.3969838,15.7091479 C73.4766769,12.6301103 76.5581434,9.64769533 79.6794563,9.61548782 Z M60.0314155,12.7225744 C58.0256759,12.703239 56.8966172,13.8053536 56.8700511,15.8162295 C56.843485,17.7819895 57.9526192,18.8518785 60.0446985,18.877659 C62.0371551,18.9034394 63.1462892,17.8206601 63.1728553,15.8162295 C63.2060629,13.8504694 62.0902873,12.7483548 60.0314155,12.7225744 Z M81.2866005,12.9843929 C80.449823,12.6623178 79.5532756,12.6365518 78.6766515,12.8620044 C77.3351511,13.2098454 76.6710419,14.1825121 76.6311954,15.7993289 C76.5913488,17.3839382 77.2886634,18.4210198 78.709857,18.7237704 C79.3274785,18.8461589 79.9915876,18.8590419 80.6224913,18.7946269 C81.8046056,18.6593554 82.5351257,17.9507903 82.8007693,16.8364106 C82.920309,16.353298 82.9535144,15.8315364 82.920309,15.3290993 C82.8339748,14.2726931 82.3624573,13.4030905 81.2866005,12.9843929 Z" id="Combined-Shape" fill="#06344F"></path>
                    </g>
                    <path d="M115.782387,101.578765 L109.318497,101.578765 L109.318497,107.929401 L106.106668,107.929401 L106.106668,101.572184 L99.6360724,101.572184 L99.6360724,98.4199 L100.226137,98.4199 L105.402613,98.4199 C106.099963,98.4199 106.099963,98.4199 106.099963,97.7552221 L106.099963,92.6747136 L106.099963,92.0824264 L109.298381,92.0824264 L109.298381,98.406738 L115.782387,98.406738 L115.782387,101.578765 Z M112.563853,95.2215488 L112.563853,88.9038181 L102.854607,88.9038181 L102.854607,95.2347108 L96.4242431,95.2347108 L96.4242431,104.796859 L102.881428,104.796859 L102.881428,111.101428 L112.590674,111.101428 L112.590674,104.750793 L119.007627,104.750793 L119.007627,95.2215488 L112.563853,95.2215488 Z" id="Fill-28" fill="#2A828B"></path>
                </g>
            </g>
        </g>
    </g>
</svg>