<svg xmlns="http://www.w3.org/2000/svg" viewBox="0 0 24 24">
  <path d="M16.965 5.884c.582 0 1.035.478 1.035 1.09V8.76h-.89v10.158c0 .613-.453 1.082-1.034 1.082H7.924c-.581 0-1.026-.469-1.026-1.082V8.76H6V6.975c0-.613.453-1.091 1.035-1.091h2.036V4.496c0-.28.205-.496.47-.496h4.832c.009 0 .026.01.035.018.008-.009.025-.018.051-.018.265 0 .479.216.479.496v1.388h2.027zm-6.954-.892v.892h3.978v-.892H10.01zm6.15 13.926V8.76H7.84v10.16c0 .063.026.09.085.09h8.152c.06 0 .085-.027.085-.09zm.89-11.15v-.793c0-.063-.026-.1-.086-.1h-9.93c-.06 0-.086.037-.086.1v.793h10.102zm-3.328 2.154h.95v8.203h-.95V9.922zm-2.19 0h.95v8.203h-.95V9.922zm-2.189 0h.95v8.203h-.95V9.922z" />
</svg>
