<svg xmlns="http://www.w3.org/2000/svg" viewBox="0 0 24 24">
  <path d="M19.527 14.573c.261 0 .473.223.473.499v4.432c-.001 1.378-1.06 2.494-2.365 2.496H4.365C3.059 21.998 2 20.882 2 19.504V6.496C2.001 5.118 3.06 4.002 4.365 4h4.199c.261 0 .473.224.473.5 0 .275-.212.498-.473.498h-4.2C3.582 5 2.948 5.67 2.947 6.496v13.008c0 .827.635 1.497 1.419 1.497h13.27c.784 0 1.418-.67 1.42-1.497v-4.432c0-.276.21-.5.472-.5zm1.285-11.944l.56.56a2.15 2.15 0 0 1 0 3.037l-8.515 8.514a.477.477 0 0 1-.21.123l-4.042 1.12a.478.478 0 0 1-.588-.588l1.12-4.042a.477.477 0 0 1 .123-.21l8.514-8.514a2.148 2.148 0 0 1 3.038 0zM10.3 11.453l2.247 2.248 6.969-6.969-2.248-2.247-6.968 6.968zm-.45.901l-.688 2.484 2.484-.688-1.795-1.796zm10.847-6.803a1.195 1.195 0 0 0 0-1.687l-.56-.56a1.193 1.193 0 0 0-1.687 0l-.507.506 2.248 2.247.506-.506z" />
</svg>
