<svg viewBox="0 0 19 18"
  xmlns="http://www.w3.org/2000/svg">
  <g fillRule="nonzero">
    <path d="M18.147 8.708a.518.518 0 0 0-.52.52v4.734a2.336 2.336 0 0 1-2.332 2.332H3.874a2.336 2.336 0 0 1-2.332-2.332V9.151a.52.52 0 0 0-1.041 0v4.811a3.377 3.377 0 0 0 3.373 3.373h11.42a3.377 3.377 0 0 0 3.373-3.373V9.228a.521.521 0 0 0-.52-.52z" />
    <path d="M6.643 4.698l2.421-2.421v10.56a.52.52 0 0 0 1.041 0V2.277l2.421 2.421a.524.524 0 0 0 .366.154.5.5 0 0 0 .366-.154.519.519 0 0 0 0-.736L9.951.65a.527.527 0 0 0-.366-.154.5.5 0 0 0-.366.154L5.911 3.958a.52.52 0 0 0 .733.736l-.001.004z" />
  </g>
</svg>
