<svg xmlns="http://www.w3.org/2000/svg" width="64" height="64" viewBox="0 0 64 64">
    <g fill="none" fill-rule="evenodd"><path d="M0 0h64v64H0z"/><path d="M38.857 0c.64 0 1.081.498 1.137 1.029l.006.114V6h6c.464 0 .929.431.993.893L47 7v9h16c.464 0 .929.431.993.893L64 17v46c0 .464-.431.929-.893.993L63 64H1a1 1 0 0 1-.994-.893L0 63V17c0-.464.345-.929.875-.993L1 16h16V7c0-.464.431-.929.893-.993L18 6h6V1.143c0-.533.398-1.067 1.009-1.136L25.143 0h13.714ZM40 14.857c0 .533-.398 1.067-1.009 1.136l-.134.007H25.143c-.64 0-1.081-.498-1.137-1.029L24 14.857V8h-5v54h4V45c0-.464.431-.929.893-.993L24 44h16c.5 0 1 .5 1 1v17h4V8h-5v6.857ZM17 18H2v44h15V18Zm45 0H47v44h15V18ZM30.9 50H25v12h5.9V50Zm8.1 0h-6.1v12H39V50Zm-26-8c.5 0 1 .5 1 1v6c0 .5-.4 1-1 1H7c-.6 0-1-.5-1-1v-6c0-.5.4-1 1-1Zm44 0c.6 0 1 .5 1 1v6c0 .5-.4 1-1 1h-6c-.6 0-1-.5-1-1v-6c0-.5.4-1 1-1Zm-45 2H8v4h4v-4Zm44 0h-4v4h4v-4Zm-17 2h-6.1v2H39v-2Zm-8.1 0H25v2h5.9v-2ZM13 32c.5 0 1 .5 1 1v6c0 .5-.4 1-1 1H7c-.6 0-1-.5-1-1v-6c0-.5.4-1 1-1Zm44 0c.6 0 1 .5 1 1v6c0 .5-.4 1-1 1h-6c-.6 0-1-.5-1-1v-6c0-.5.4-1 1-1Zm-27-2c.6 0 1 .5 1 1v8c0 .5-.4 1-1 1h-6c-.6 0-1-.5-1-1v-8c0-.5.4-1 1-1Zm9.9 0c.6 0 1 .5 1 1v8c0 .5-.4 1-1 1h-6c-.6 0-1-.5-1-1v-8c0-.5.4-1 1-1ZM12 34H8v4h4v-4Zm44 0h-4v4h4v-4Zm-27-2h-4v6h4v-6Zm9.9 0h-4v6h4v-6ZM13 22c.464 0 .929.345.993.875L14 23v6c0 .464-.345.929-.875.993L13 30H7a1 1 0 0 1-.994-.893L6 29v-6c0-.464.345-.929.875-.993L7 22h6Zm44 0c.6 0 1 .4 1 1v6c0 .5-.4 1-1 1h-6c-.6 0-1-.5-1-1v-6c0-.5.4-1 1-1Zm-45 2H8v4h4v-4Zm44 0h-4v4h4v-4Zm-26-6c.6 0 1 .4 1 1v8c0 .5-.4 1-1 1h-6c-.6 0-1-.5-1-1v-8c0-.5.4-1 1-1Zm9.9 0c.6 0 1 .4 1 1v8c0 .5-.4 1-1 1h-6c-.6 0-1-.5-1-1v-8c0-.5.4-1 1-1ZM29 20h-4v6h4v-6Zm9.9 0h-4v6h4v-6ZM38 2H26v12h12V2Zm-5 2v3h3v2h-3v3h-2V9h-3V7h3V4h2Z" fill="var(--color-secondary)" fill-rule="nonzero"/></g>
</svg>