<svg xmlns="http://www.w3.org/2000/svg" viewBox="0 0 64 64">
  <path d="M49.5 0c3.2 0 6.3 0 9.5.098.5 0 1 0 1.6.099.3 0 .7.098.9.295.3.197.7.591 1 .886.3.197.4.591.4.985 0 2.462.1 5.022.1 7.582v46.572c0 1.378-.1 2.855-.1 4.234 0 .492-.2.886-.5 1.181-.6.69-1.4 1.182-2.5 1.182-3 0-6.1.098-9.2.098H35.9v-1.969h22.6c.5 0 1.1-.098 1.6-.098.6 0 .7-.099.7-.591.1-.492.1-.985.1-1.477.1-6.695.1-13.39.1-20.086V6.794c0-1.182-.1-2.462-.1-3.643 0-.985-.1-1.083-1.1-1.083-1.8-.099-3.7-.099-5.5-.099H32.4c-.5 0-.7.197-.7.69-.1.59-.1 1.083-.1 1.575v5.514h-2.1V9.55c.1-2.265.1-4.628.1-6.893C29.6 1.575 31.2 0 32.5 0c5.6.098 11.3 0 17 0zm-21 11.323c.5.099 1.1.099 1.6.099.9 0 1.8.787 1.8 1.575 0 1.378.1 2.855 0 4.234-.1.984-.8 1.674-1.9 1.87-.4.099-.7.099-1.2.099.1 1.083.1 2.166.2 3.25.1.492.4.885.7 1.28.7.885 1.5 1.87 2.3 2.756.5.59.9 1.182 1.4 1.772.4.493.5 1.084.5 1.674 0 1.28.1 2.56.1 3.84 0 7.877-.1 15.754-.1 23.631 0 1.083-.1 2.068-.2 3.15 0 .395-.3.69-.5.985-.7.887-1.6.985-2.6.985-2.3.099-4.7.099-7 .099H6.3c-1 0-2.1-.099-3.1-.197-.5-.099-.8-.296-1.1-.591-.1-.099-.1-.197-.2-.197-.5-.295-.7-.788-.7-1.28 0-.69-.1-1.379-.1-2.068C1 49.428 1 40.468 1 31.606v-1.378c0-.69.2-1.379.8-1.871a91.65 91.65 0 012.9-3.643c.3-.394.7-.886 1-1.28.3-.492.5-.985.5-1.576v-2.56c-.4 0-.8 0-1.2-.098-1-.197-1.8-.886-1.8-1.87-.1-1.478-.1-2.856 0-4.333 0-.788.9-1.575 1.7-1.575 2.3 0 4.7-.099 7-.099zM26.7 23.04H8.2c-.1.098-.3.098-.3.197-.7 1.378-1.7 2.461-2.7 3.643-.5.69-1.1 1.477-1.7 2.166-.5.59-.5 1.28-.4 1.97h18.6v1.969H3.5c-.3 0-.4.098-.4.393v23.139c0 1.083.1 2.265.1 3.446 0 .394.1.59.6.59.6.1 1.2.1 1.8.1h19.8c1.9 0 3.8-.1 5.7-.1.5 0 .7-.098.7-.688.1-.591.1-1.28.1-1.871.1-7.385.1-14.868 0-22.252v-5.219c0-.886-.3-1.477-.8-2.068l-2.4-2.953c-.6-.69-1-1.477-1.5-2.167-.1-.197-.2-.295-.5-.295zm.9 8.27v25.207H4.7v-1.97h20.8V33.183h-2V31.31h4.1zM40 48.64c1.9 0 4.3 1.772 4.1 4.037.2 1.674-1.9 3.84-4.1 3.84-2.4 0-4.1-2.265-4.1-3.939 0-1.969 2-3.938 4.1-3.938zm12.7 0c1.9 0 4.3 1.674 4.2 4.037.2 1.674-1.8 3.84-4.1 3.84s-4.1-2.265-4.2-4.037c.1-1.87 2.1-3.84 4.1-3.84zm-12.6 1.97c-1.4 0-2.1.688-2.1 1.968-.1 1.28.7 1.97 2 1.97 1.4 0 2.1-.69 2.1-1.97 0-1.181-.7-1.87-2-1.969zm12.8 0l-.187.003c-1.275.06-1.913.74-1.913 1.867 0 1.28.7 1.97 2 1.97 1.3.098 2.1-.592 2.1-1.872 0-1.28-.7-1.969-2-1.969zm-35-13.195v3.939h4.2v6.006h-4.2v3.938h-6.3V47.36H7.4v-6.006h4.2v-3.939h6.3zm-2.1 1.97h-2.1v3.544c0 .394 0 .394-.5.394H9.5v1.97h4.2v3.938h2.1v-3.939H20v-1.969h-4.2v-3.938zm24.1-1.674c2 0 4.3 1.772 4.2 4.037.2 1.674-1.8 3.84-4.1 3.84-2.4.098-4.1-2.166-4.2-3.939 0-1.969 2.1-3.938 4.1-3.938zm12.8 0c2 0 4.3 1.772 4.2 4.037.2 1.674-1.7 3.84-4.1 3.84-2.4 0-4.1-2.265-4.2-3.939.1-1.969 2.1-3.938 4.1-3.938zm-12.6 2.067c-1.4 0-2.1.69-2.1 2.068 0 1.182.7 1.87 2.1 1.87 1.3 0 2-.688 2-1.968s-.7-1.97-2-1.97zm12.9 0l-.18.004c-1.288.05-2.02.643-2.02 1.867-.1 1.28.6 1.97 2 1.97 1.3 0 2.1-.591 2.1-1.871.1-1.182-.6-1.97-1.9-1.97zM40 26.88c1.8 0 4.3 1.772 4.1 4.037.3 1.674-1.9 3.938-4.1 3.84-2.4 0-4.1-2.265-4.1-3.939 0-1.969 2-3.84 4.1-3.938zm12.9 0c1.8 0 4.2 1.674 4.1 4.037.1 1.772-2.1 3.84-4.2 3.84-2.4 0-4.1-2.265-4-4.037 0-1.97 2-3.84 4.1-3.84zm-13.3 1.97c-.8.098-1.4.492-1.6 1.18-.2.788-.2 1.576.5 2.265.2.099.3.197.5.296.6.197 1.2.295 1.8.098.9-.197 1.3-.886 1.3-1.87 0-1.084-.5-1.773-1.5-1.871h-.15a3.519 3.519 0 01-.85-.099zm13.133.09c-1.201-.03-1.933.654-1.933 1.878 0 1.28.7 1.97 2 1.97s2.1-.591 2.1-1.871c.1-1.182-.7-1.97-2-1.97zM39.9 16.541c2 0 4.4 1.673 4.1 4.036.2 1.576-1.7 3.742-4.1 3.742-2.4 0-4.1-2.265-4.1-3.938.1-1.871 2.1-3.84 4.1-3.84zm12.8-.099c2 0 4.3 1.772 4.2 4.037.2 1.674-1.7 3.84-4.1 3.84-2.4 0-4.1-2.265-4.2-3.938.1-1.97 2.1-3.939 4.1-3.939zm.3 2.068c-1.4 0-2.2.59-2.2 1.87-.1 1.28.7 1.97 2 1.97s2.1-.591 2.1-1.871c.1-1.182-.6-1.97-1.9-1.97zm-13-.099c-1.4 0-2.1.69-2.1 1.97s.7 1.969 2.1 1.969c1.3 0 2-.591 2-1.97 0-1.28-.7-1.969-2-1.969zm-13.2.788H8.2v1.97h18.6V19.2zm3.1-5.908h-3.1v3.939h3.1v-3.939zm-5.2 0h-2v3.939h2v-3.939zm-4.1 0h-2v3.939h2v-3.939zm-4.2 0h-2v3.939h2v-3.939zm-4.1 0h-2v3.939h2v-3.939zm-4.1 0H5.1v3.939h3.1v-3.939zm44.6-7.187c1.9-.099 4.3 1.575 4.2 3.938.1 1.772-2.1 3.939-4.2 3.84-2.4 0-4.1-2.265-4.1-3.938.1-1.97 2.1-3.84 4.1-3.84zm-12.9-.099l.169.004c1.87.095 4.128 1.74 4.031 4.033.2 1.674-1.8 3.84-4.1 3.84s-4.1-2.166-4.1-3.938c0-1.871 2-3.84 4-3.939zm.1 2.068l-.182.005c-1.183.062-1.823.745-1.918 1.964 0 1.28.7 1.97 2.1 1.97 1.3 0 2-.69 2-1.97.1-1.28-.7-1.97-2-1.97zm13.8.098c-.5-.197-1.1-.197-1.7-.098-.8.197-1.3.886-1.3 1.87 0 .985.5 1.674 1.4 1.871.4.099.8.099 1.2.099.8-.099 1.2-.59 1.4-1.28.1-.296.1-.69.1-.985-.1-.689-.4-1.181-1.1-1.477z" fill-rule="evenodd"/>
</svg>
