<svg width="64" height="64" xmlns="http://www.w3.org/2000/svg">
    <path d="M54 0c5.523 0 10 4.477 10 10v44c0 5.523-4.477 10-10 10H10C4.477 64 0 59.523 0 54V10C0 4.477 4.477 0 10 0h44zm0 3H10a7 7 0 0 0-6.996 6.76L3 10v44a7 7 0 0 0 6.76 6.996L10 61h44a7 7 0 0 0 6.996-6.76L61 54V10a7 7 0 0 0-6.76-6.996L54 3zm-3 47a1 1 0 1 1 0 2H19a1 1 0 1 1 0-2h32zm-37-1a1 1 0 0 1 1 1v1a1 1 0 0 1-1 1h-1a1 1 0 0 1-1-1v-1a1 1 0 0 1 1-1h1zm37-7a1 1 0 1 1 0 2H19a1 1 0 1 1 0-2h32zm-37-1a1 1 0 0 1 1 1v1a1 1 0 0 1-1 1h-1a1 1 0 0 1-1-1v-1a1 1 0 0 1 1-1h1zm37-7a1 1 0 1 1 0 2H19a1 1 0 1 1 0-2h32zm-37-1a1 1 0 0 1 1 1v1a1 1 0 0 1-1 1h-1a1 1 0 0 1-1-1v-1a1 1 0 0 1 1-1h1zm27.458-21.533c1.997 1.897 2.054 4.945.172 6.908l-.172.17-8.484 8.073a1.432 1.432 0 0 1-1.833.095l-.11-.095-8.49-8.073c-2.055-1.952-2.055-5.125 0-7.078 1.996-1.899 5.195-1.954 7.261-.167l.185.167 2.017 1.916 2.009-1.916c2.055-1.956 5.394-1.956 7.445 0zm-15.16 1.171c-.665 0-1.303.251-1.774.7a2.337 2.337 0 0 0-.123 3.278l.123.126 7.491 7.183 7.5-7.183a2.34 2.34 0 0 0 0-3.33c-.915-.913-2.403-.986-3.407-.193l-.14.119-2.983 2.858a1.417 1.417 0 0 1-1.828.096l-.111-.096-2.975-2.858a2.572 2.572 0 0 0-1.774-.7z" fill-rule="evenodd"/>
</svg>
