<svg xmlns="http://www.w3.org/2000/svg" width="64" height="64" viewBox="0 0 64 64">
    <g fill="none" fill-rule="evenodd">
        <g>
            <g>
                <g>
                    <g>
                        <path d="M0 0H64V64H0z" transform="translate(-952.000000, -412.000000) translate(144.000000, 277.000000) translate(784.000000, 0.000000) translate(24.000000, 135.000000)"/>
                        <path fill="#2A828B" d="M12.3 55.7l.7-.4 1.3-.7.6-.3.4-.2.3-.1.2-.1.2-.1h.1c1-.3 2.1-.5 3.2-.5.7 0 1.4.1 2.2.2l.4.1 10.5 2.6c.7.2 1.4.3 2.1.3 1.2 0 2.4-.2 3.5-.7l.3-.1 7.6-3.6 10.3-6.7.2-.2v-.1-.3c-.6-.9-1.6-1.5-2.8-1.5-.5 0-1.1.1-1.6.4l-.2.1-5 3.3-.1-.1-.2.1-.1.1-4 1.3v.7c-.3 1.3-1.2 2.4-2.3 3.2-.8.5-1.7.7-2.7.7-.3 0-.6 0-.9-.1l-.5-.1-10.8-2.6c-.5-.1-.9-.4-1.1-.8-.3-.4-.3-.9-.2-1.4.2-.8.9-1.4 1.8-1.4h.4l10.8 2.6h.4c.3 0 .5-.1.8-.2.3-.2.6-.5.7-.9.1-.4 0-.8-.2-1.1-.2-.3-.5-.5-.8-.6h-.1l-9.4-2.3c-.2 0-.3-.1-.4-.2l-.1-.1-.1-.1-.2-.2-1.8-2.1c-.5-.6-1.2-1-1.9-1.2l-.2-.1-6.2-1.5c-.3-.1-.7-.1-1-.1-.6 0-1.2.1-1.8.4l-.2.1-4.2 2.4L4 45c-2.1.8-3.5-1.8-2-3l10.3-6c1.2-.7 2.5-1 3.8-1 .5 0 1 0 1.5.1l.4.1 6.2 1.5c1.5.3 2.8 1.1 3.8 2.2l.2.2 1.4 1.6 8.9 2.2c1.1.3 2.2 1 2.9 1.9l.1.1 3.6-1.1 4.9-3.2c1-.7 2.2-1 3.4-1.1h.3c.5 0 1 .1 1.4.2 1.8.4 3.3 1.4 4.4 3 .5.9.7 1.9.6 2.9v.2c-.2.9-.8 1.7-1.5 2.3l-.2.1L47.8 55l-.1.1h-.1l-.6.3-.2.1-7 3.3c-1.7.8-3.5 1.2-5.3 1.2-.9 0-1.7-.1-2.5-.3l-.4-.1L21 57.1c-.6-.1-1.1-.2-1.7-.2-.7 0-1.3.1-1.9.3h-.1l-.3.1-.7.3-1 .5-1.3.7s-1.9.9-2.6-.7c-.8-1.4.8-2.4.8-2.4h.1zM40.7 4.3c2.9 0 5.6 1.1 7.7 3.2 2 2 3.2 4.8 3.2 7.7 0 2.9-1.1 5.6-3.2 7.7L33.6 37.6c-.7.7-1.7.7-2.4 0L16.5 22.8c-4.2-4.2-4.2-11.1 0-15.3 4.2-4.2 11.1-4.2 15.3 0l.6.6.6-.6c2-2 4.6-3.1 7.3-3.2h.4zm0 3.4c-2 0-3.9.8-5.3 2.2l-1.8 1.8c-.7.7-1.7.7-2.4 0l-1.8-1.8C26.5 7 21.7 7 18.8 9.9c-2.9 2.9-2.9 7.7 0 10.6L32.4 34 46 20.5c1.3-1.3 2.1-3.1 2.2-5v-.3c0-2-.8-3.9-2.2-5.3-1.4-1.4-3.3-2.2-5.3-2.2z" transform="translate(-952.000000, -412.000000) translate(144.000000, 277.000000) translate(784.000000, 0.000000) translate(24.000000, 135.000000)"/>
                    </g>
                </g>
            </g>
        </g>
    </g>
</svg>
