<svg xmlns="http://www.w3.org/2000/svg" viewBox="0 0 24 24">
  <g fill-rule="evenodd">
    <path fill="none" d="M0 0h24v24H0z"/>
    <path d="M1.64 12.14a.64.64 0 00-.63.65v5.85c0 2.3 1.83 4.16 4.08 4.16h13.83A4.13 4.13 0 0023 18.64v-5.95a.64.64 0 00-.63-.64.64.64 0 00-.63.64v5.95a2.86 2.86 0 01-2.82 2.88H5.09a2.86 2.86 0 01-2.82-2.88v-5.85a.65.65 0 00-.19-.46.62.62 0 00-.44-.19zM15.57 7.2a.62.62 0 00.88 0 .65.65 0 000-.91l-4-4.09A.6.6 0 0012 2a.63.63 0 00-.44.19l-4 4.1a.65.65 0 000 .9.6.6 0 00.44.2.63.63 0 00.44-.2l2.93-2.99v13.04c0 .36.29.65.63.65.35 0 .63-.29.63-.64V4.2l2.93 2.99z"/>
  </g>
</svg>
