<svg xmlns="http://www.w3.org/2000/svg" width="270" height="160">
  <g fill="none" fill-rule="evenodd">
    <path d="M0 0h270v160H0z" />
    <path fill="var(--color-secondary)" fill-rule="nonzero"
      d="M127.056 84.638c.635 0 1.243.251 1.693.7l2.84 2.858a1.305 1.305 0 001.851 0l2.848-2.858a2.39 2.39 0 013.385.075 2.42 2.42 0 010 3.33l-7.158 7.182-7.151-7.183a2.415 2.415 0 010-3.404c.45-.449 1.058-.7 1.692-.7zm4.518 13.98c.51.51 1.343.51 1.855 0l8.1-8.073a4.991 4.991 0 000-7.078 5.039 5.039 0 00-7.108 0l-1.917 1.916-1.925-1.916a5.037 5.037 0 00-7.107 0 4.99 4.99 0 000 7.078l8.102 8.073z" />
    <path fill="var(--color-primary)" fill-rule="nonzero"
      d="M144.466 111c-.305 0-.61-.12-.841-.362l-3.275-3.362a1.246 1.246 0 010-1.732 1.166 1.166 0 011.685 0l2.43 2.494 6.504-6.679a1.163 1.163 0 011.681 0c.467.48.467 1.253 0 1.732l-7.343 7.547a1.163 1.163 0 01-.841.362m0 11c-.305 0-.61-.12-.841-.362l-3.275-3.362a1.246 1.246 0 010-1.732 1.166 1.166 0 011.685 0l2.43 2.494 6.504-6.679a1.163 1.163 0 011.681 0c.467.48.467 1.253 0 1.732l-7.343 7.547a1.163 1.163 0 01-.841.362m0 11c-.305 0-.61-.12-.841-.362l-3.275-3.362a1.246 1.246 0 010-1.732 1.166 1.166 0 011.685 0l2.43 2.494 6.504-6.679a1.163 1.163 0 011.681 0c.467.48.467 1.253 0 1.732l-7.343 7.547a1.163 1.163 0 01-.841.362m-10.665-23.7h-16.602c-.664 0-1.199-.584-1.199-1.3 0-.72.535-1.3 1.199-1.3h16.602c.664 0 1.199.58 1.199 1.3 0 .716-.535 1.3-1.199 1.3m0 11h-16.602c-.664 0-1.199-.584-1.199-1.3 0-.72.535-1.3 1.199-1.3h16.602c.664 0 1.199.58 1.199 1.3 0 .716-.535 1.3-1.199 1.3" />
    <path fill="var(--color-primary)" fill-rule="nonzero"
      d="M161.343 140.78h-42.469a27.516 27.516 0 011.953-2.6l.01-.014h36.53c.73 0 1.325-.582 1.325-1.305V78.065h2.652v62.714zm-38.159-5.381l2.218-2.606.122-.142c.287-.34.45-.764.62-1.182h7.689c.664 0 1.2-.544 1.2-1.212 0-.67-.536-1.212-1.2-1.212h-7.291c-.004-.01.004-.022 0-.037a4.501 4.501 0 00-1.557-2.964c-1.989-1.693-5.53-.593-8.822 2.71l-2.502 2.424c-1.811 1.611-3.981 2.532-5.394 2.998V72.837h13.272v3.923c0 .72-.594 1.305-1.325 1.305a1.318 1.318 0 01-1.332-1.305v-1.31h-2.653v1.309c0 2.162 1.782 3.919 3.985 3.919 2.196 0 3.978-1.757 3.978-3.92v-3.922h31.846v62.719h-32.983l.13-.157zm-4.302-67.785c1.469 0 2.657 1.167 2.657 2.613h-5.31c0-1.446 1.192-2.613 2.653-2.613zm43.79 7.837h-3.981v-3.919c0-.723-.595-1.305-1.325-1.305h-33.174c0-2.885-2.377-5.227-5.31-5.227-2.93 0-5.306 2.342-5.306 5.227h-6.634c-.73 0-1.328.582-1.328 1.305v51.328l-.015.007c-1.959 1.205-11.405 7.1-12.744 9.791-1.081 2.178-6.446 18.457-8.213 23.874a170.86 170.86 0 00-.576 1.757c-.225.682.144 1.42.823 1.64.133.045.27.071.406.071a1.3 1.3 0 001.228-.895c2.07-6.36 7.66-23.296 8.645-25.283.617-1.242 5.557-4.814 10.431-7.882v9.94c0 .067.008.134.015.198.096.622.627 1.1 1.277 1.1.051 0 .092-.023.136-.03.078 0 .151.018.233.003.125-.022 2.114-.417 4.472-1.595 1.199-.6 2.49-1.406 3.686-2.469l1.719-1.659.841-.813a12.879 12.879 0 011.89-1.57c1.63-1.103 2.944-1.32 3.442-1.025.39.231.542.615.63 1.025.034.135.086.261.097.4.04.559-.13 1.1-.48 1.517l-.432.507-3.472 4.087-.793.932c-.461.54-.9 1.107-1.325 1.678a33.187 33.187 0 00-1.756 2.613 34.76 34.76 0 00-1.417 2.614c-.01.022-.026.048-.037.075-.32.656-.627 1.327-.911 2.013-2.284 5.544-7.162 9.564-7.206 9.608a1.314 1.314 0 00-.196 1.831c.133.164.3.284.476.366l1.343-.172c.222-.183 5.432-4.463 7.97-10.637.207-.496.487-.933.716-1.417l.8-1.592.038-.075h45.317c.734 0 1.328-.585 1.328-1.305V76.76a1.32 1.32 0 00-1.328-1.309z" />
    <path fill="var(--color-primary)" fill-rule="nonzero"
      d="M111.668 109.422h.66c.784 0 1.424-.636 1.424-1.42 0-.788-.64-1.424-1.424-1.424h-.66a1.421 1.421 0 000 2.844m0 11h.66c.784 0 1.424-.636 1.424-1.42 0-.788-.64-1.424-1.424-1.424h-.66a1.421 1.421 0 000 2.844m0 11h.66c.784 0 1.424-.636 1.424-1.42 0-.788-.64-1.424-1.424-1.424h-.66a1.421 1.421 0 000 2.844M178.536.407h31.375a5.297 5.297 0 015.294 5.298v31.371c0 2.929-2.37 5.3-5.294 5.3h-31.375a5.3 5.3 0 01-5.299-5.3V5.706c0-2.925 2.374-5.3 5.299-5.3zm0 2.444a2.852 2.852 0 00-2.854 2.854v31.371a2.852 2.852 0 002.854 2.854h31.375c1.57 0 2.85-1.276 2.85-2.854V5.706a2.854 2.854 0 00-2.85-2.855h-31.375z" />
    <path fill="var(--color-primary)" fill-rule="nonzero"
      d="M199.328 17.929c-1.429-.704-2.687-1.12-3.885-1.288v-3.903H193v3.903c-1.199.168-2.453.588-3.881 1.288l-3.048-5.154c3.219-1.663 5.704-2.385 8.149-2.385 2.448 0 4.934.722 8.149 2.385l-3.04 5.154zm5.395-6.702c-4.126-2.27-7.364-3.282-10.504-3.282-3.137 0-6.374 1.012-10.497 3.282l-1.112.61 5.57 9.351 1.038-.573c2.061-1.131 3.554-1.615 5.001-1.615 1.451 0 2.947.484 5 1.615l1.043.573 5.574-9.35-1.113-.61zM191.54 33.615l-1.235-2.162-.439.488v1.674H187.4v-8.863h2.467v4.83l1.567-2.08h2.772l-2.214 2.47 2.229 3.643h-2.68zm9.913-5.648a3.08 3.08 0 00-.621-.07c-.23 0-.454.022-.636.081.45.342.71.822.71 1.407 0 1.272-1.202 2.08-3.092 2.08-.48 0-.908-.053-1.287-.146-.049.049-.06.108-.06.172 0 .29.257.439.744.439h1.835c1.555 0 2.359.621 2.359 1.82 0 1.529-1.407 2.395-3.803 2.395-1.965 0-3.14-.487-3.14-1.346 0-.45.353-.782 1.075-1.013-.573-.22-.904-.636-.904-1.198 0-.684.439-1.213 1.257-1.492-.744-.353-1.172-.952-1.172-1.711 0-1.273 1.198-2.028 3.096-2.028.573 0 1.087.074 1.515.208.241-.733.926-1.127 1.953-1.127h.171v1.529zm-3.639 2.37c.45 0 .755-.387.755-.952 0-.562-.305-.905-.755-.905-.458 0-.763.343-.763.905 0 .565.305.952.763.952zm-1.235 3.61c-.112 0-.235 0-.331-.015a.639.639 0 00-.1.38c0 .416.565.635 1.528.635 1.135 0 1.75-.182 1.75-.562 0-.293-.187-.427-.574-.427l-2.273-.012zM124.735 23.07c-.614.067-1.15.595-1.21 1.21-.51 4.23 2.2 8.759 6.07 10.865.628.346 1.51.089 1.856-.54.342-.629.086-1.514-.543-1.857-2.817-1.536-5.012-5.432-4.692-8.152.111-.808-.67-1.608-1.481-1.526m7.553-19.61c6.188 7.011 11.546 15.052 11.546 21.776 0 7.14-5.228 12.796-11.546 12.796s-11.542-5.656-11.542-12.796c0-6.724 5.35-14.765 11.542-21.775m-.997-3.033c-6.783 7.438-13.265 16.276-13.265 24.808 0 8.48 6.333 15.509 14.262 15.509 7.926 0 14.259-7.03 14.259-15.51 0-8.531-6.482-17.369-13.262-24.807a1.377 1.377 0 00-1.994 0M70.937 37.031l-.122.093-.123-.097c-2.85-2.243-17.064-13.983-17.064-24.751 0-5.191 4.238-9.41 9.455-9.41 2.772 0 5.425 1.235 7.281 3.39.268.334.696.52 1.124.49.361-.022.659-.19.823-.461l.018-.03c1.727-2.024 4.395-3.237 7.133-3.237 5.21 0 9.455 4.22 9.455 9.407 0 4.416-2.567 9.529-7.635 15.188-4.26 4.756-8.998 8.41-10.345 9.418m11.7-6.943c5.908-6.423 8.903-12.365 8.903-17.663C91.54 5.798 86.123.406 79.462.406c-2.932 0-5.942 1.168-8.052 3.114l-.134.123-.138-.115C68.805 1.515 65.944.406 63.083.406 56.423.406 51 5.798 51 12.425c0 6.928 4.978 13.905 9.16 18.534 4.581 5.075 9.385 8.67 9.835 8.896.29.145.562.28.822.28.246 0 .514-.13.8-.272.045-.034.13-.1.25-.186 5.079-3.777 8.658-7.297 10.768-9.59" />
    <path fill="var(--color-primary)" fill-rule="nonzero"
      d="M68.612 20.632H65.39v-2.53h3.222a1.27 1.27 0 001.265-1.269v-3.252h2.5v3.252c0 .7.566 1.269 1.266 1.269h3.222v2.53h-3.222c-.7 0-1.266.57-1.266 1.269v3.241h-2.5v-3.241c0-.7-.57-1.269-1.265-1.269m9.552-5.116h-3.241V12.27a1.27 1.27 0 00-1.273-1.269h-5.053a1.27 1.27 0 00-1.269 1.27v3.244h-3.244a1.27 1.27 0 00-1.27 1.269v5.06c0 .703.574 1.273 1.27 1.273h3.244v3.233c0 .7.573 1.27 1.269 1.27h5.053c.703 0 1.273-.57 1.273-1.27v-3.233h3.24c.704 0 1.27-.57 1.27-1.273v-5.06c0-.704-.566-1.27-1.27-1.27" />
  </g>
</svg>