<svg width="22" height="22" viewBox="0 0 22 22" fill="none" xmlns="http://www.w3.org/2000/svg">
<path d="M9.51674 15.5382L5.57082 11.5871C5.11661 11.1323 4.97467 10.4216 5.25855 9.88155C5.74114 8.94351 6.93344 8.80138 7.61475 9.48359L9.48835 11.3597C9.8574 11.7292 10.4252 11.7292 10.7942 11.3597L17.4086 4.73654C18.2318 3.9122 18.0899 2.54778 17.1531 1.894C15.2227 0.586426 12.8665 -0.12421 10.34 0.0179168C4.71918 0.359022 0.205498 4.99237 0.00678201 10.5922C-0.220321 17.1585 5.28694 22.5024 11.9013 21.9624C17.1815 21.536 21.4964 17.2722 21.9507 11.985C22.0642 10.7912 21.979 9.65414 21.7235 8.57397C21.4113 7.1527 19.6512 6.66947 18.6293 7.69279L10.8226 15.5382C10.4535 15.9077 9.88578 15.9077 9.51674 15.5382Z" fill="#74C8A4"/>
</svg>
