<svg xmlns="http://www.w3.org/2000/svg"
    xmlns:xlink="http://www.w3.org/1999/xlink" width="270" height="160" viewBox="0 0 270 160">
    <defs>
        <path id="a" d="M0 0h69.233v83.723H0z"/>
        <path id="c" d="M0 0h57.01v73.258H0z"/>
    </defs>
    <g fill="none" fill-rule="evenodd">
        <path fill="var(--color-secondary)" fill-rule="nonzero" d="M179.554 101.259l6.534 6.534a1.308 1.308 0 1 0 1.85-1.85l-8.655-8.654c-.51-.511-1.339-.511-1.85 0l-8.654 8.654a1.308 1.308 0 0 0 1.85 1.85l6.308-6.308v31.478c0 13.442-10.897 24.34-24.34 24.34s-24.341-10.898-24.341-24.34v-60.16c0-11.252-9.1-20.375-20.327-20.375-11.227 0-20.327 9.123-20.327 20.375a1.308 1.308 0 1 0 2.616 0c0-9.809 7.93-17.759 17.711-17.759 9.78 0 17.71 7.95 17.71 17.76v60.159c0 14.887 12.07 26.956 26.958 26.956 14.888 0 26.957-12.069 26.957-26.956v-31.704z"/>
        <g transform="matrix(-1 0 0 1 212.975 0)">
            <mask id="b" fill="#fff">
                <use xlink:href="#a"/>
            </mask>
            <path fill="var(--color-primary)" fill-rule="nonzero" d="M41.853 58.916a7.601 7.601 0 0 0-3.322-3.854c2.135-1.19 4.836-3.064 6.667-5.655l2.812 2.638c-.641 1.425-2.407 4.606-6.157 6.871m-4.223-6.508a26.254 26.254 0 0 1-1.297.727c-.735.385-1.344.66-1.722.82a22.46 22.46 0 0 1-1.352-.63 25.709 25.709 0 0 1-2.624-1.52 21.946 21.946 0 0 1-.958-.675 18.36 18.36 0 0 1-1.242-1.014v-3.603c1.802.974 3.79 1.486 5.929 1.513.144.026.299.037.464.037.248 0 .52-.024.815-.056.794-.085 2.332-.352 4.125-1.179v4.126c-.08.061-.158.124-.237.183l-.241.178a22.123 22.123 0 0 1-1.66 1.093m-8.03 3.597a7.618 7.618 0 0 0-2.015 2.911 15.757 15.757 0 0 1-4.761-4.445 15.483 15.483 0 0 1-.91-1.458 13.414 13.414 0 0 1-.485-.968l2.811-2.638c.343.486.717.946 1.113 1.382a18.46 18.46 0 0 0 2.107 1.97c.439.353.884.681 1.324.985a25.46 25.46 0 0 0 2.123 1.318 7.65 7.65 0 0 0-1.307.943m-5.492 12.834a1.86 1.86 0 0 1-1.855 1.86 1.86 1.86 0 0 1 0-3.72 1.86 1.86 0 0 1 1.855 1.86m.5-29.605c-1.81-3.013-2.767-6.544-2.767-10.21V28c0-3.24.94-6.382 2.72-9.09.85-1.292 1.481-2.247 1.977-2.992 8.907 6.329 17.524 8.04 20.827 8.482.015.002.026.017.026.034v4.227c0 2.75-.49 5.364-1.456 7.77-3.11 7.749-8.994 8.885-10.707 9.048h-.68c-4.106 0-7.45-2.1-9.94-6.245m-8.33-13.149c0-13.015 8.226-23.604 18.338-23.604S52.955 13.07 52.955 26.085c0 6.045-1.73 10.237-5.417 12.78.237-.486.464-.996.68-1.534 1.082-2.706 1.63-5.634 1.63-8.706v-4.222c0-1.281-.95-2.375-2.212-2.544-3.116-.42-11.276-2.049-19.727-8.12a2.366 2.366 0 0 0-1.799-.404 2.334 2.334 0 0 0-1.535 1.014 595.1 595.1 0 0 0-2.069 3.144 19.063 19.063 0 0 0-3.122 10.471v1.023c0 3.453.759 6.803 2.2 9.8-3.611-2.549-5.306-6.718-5.306-12.702m45.52 29.79L50.702 51.67a1.318 1.318 0 0 0-.413-1.001l-4.64-4.377-3.328 2.559v-3.546a15.583 15.583 0 0 0 2.542-2.324c.131-.046.266-.09.394-.138 1.394-.526 2.634-1.18 3.725-1.97 4.127-2.987 6.22-7.95 6.22-14.751C55.201 11.718 45.966 0 34.616 0 23.266 0 14.03 11.718 14.03 26.122c0 6.8 2.093 11.764 6.22 14.751 1.091.79 2.332 1.444 3.727 1.97.059.023.122.043.182.064a15.872 15.872 0 0 0 1.736 1.798v3.179l-2.071-1.771c-.086.05-.167.11-.242.179l-4.64 4.377c-.279.263-.423.629-.412 1.001L7.436 55.876C4.659 56.926 0 59.589 0 65.602v16.88c0 .686.553 1.241 1.236 1.241h.206c.683 0 1.237-.555 1.237-1.24V65.608c0-1.309.304-2.41.803-3.334A7.18 7.18 0 0 1 5.22 60.18a10.035 10.035 0 0 1 1.946-1.259 12.017 12.017 0 0 1 .754-.347c.166-.07.332-.136.496-.198l11.166-4.214a18.07 18.07 0 0 0 1.329 2.11v8.263a4.562 4.562 0 0 0-1.288.629 4.572 4.572 0 0 0-1.561 1.9 4.459 4.459 0 0 0-.35 2.256 4.505 4.505 0 0 0 1.015 2.422c.278.336.604.633.967.877.725.49 1.598.777 2.538.777a4.53 4.53 0 0 0 3.767-2.003 4.507 4.507 0 0 0-.137-5.248 4.619 4.619 0 0 0-1.02-.981 4.58 4.58 0 0 0-1.289-.629v-5.36a18.424 18.424 0 0 0 3.11 2.226c.4.227.817.445 1.253.652a1.321 1.321 0 0 0 1.88-1.032 4.863 4.863 0 0 1 1.18-2.628 4.989 4.989 0 0 1 2.404-1.508v25.598c0 .685.554 1.24 1.236 1.24h.206c.683 0 1.237-.555 1.237-1.24v-25.6a5 5 0 0 1 2.836 2.08c.391.604.654 1.3.747 2.057a1.31 1.31 0 0 0 .675.997 1.31 1.31 0 0 0 .782.155c.144-.015.287-.055.423-.12a18.545 18.545 0 0 0 4.363-2.878v8.275a7.669 7.669 0 0 0-1.268.346 7.497 7.497 0 0 0-3.516 2.693 7.411 7.411 0 0 0-1.377 4.31v4.273a1.315 1.315 0 0 0 .93 1.261c.123.038.255.06.392.06h1.569a1.398 1.398 0 0 0 .393-.06 1.32 1.32 0 0 0-.393-2.581h-.248v-2.953c0-.832.212-1.616.585-2.3a4.861 4.861 0 0 1 1.747-1.83 4.833 4.833 0 0 1 7.345 4.131v2.952h-.246a1.32 1.32 0 1 0 0 2.64h1.568a1.315 1.315 0 0 0 .84-.301 1.327 1.327 0 0 0 .481-1.019v-4.273a7.449 7.449 0 0 0-3.448-6.284 7.465 7.465 0 0 0-2.712-1.065V56.271a18.22 18.22 0 0 0 1.329-2.11l11.167 4.216c.573.216 1.17.483 1.752.812.25.141.497.294.739.459a8.807 8.807 0 0 1 1.148.931 7.394 7.394 0 0 1 .797.91 6.493 6.493 0 0 1 1.162 2.648c.09.458.14.948.14 1.471v16.875c0 .685.553 1.24 1.235 1.24.683 0 1.237-.555 1.237-1.24V65.602c0-6.011-4.658-8.675-7.435-9.726" mask="url(#b)"/>
        </g>
        <g transform="matrix(-1 0 0 1 114.157 86.54)">
            <mask id="d" fill="#fff">
                <use xlink:href="#c"/>
            </mask>
            <path fill="var(--color-primary)" fill-rule="nonzero" d="M42.851 10.989H6.121V6.105a3.672 3.672 0 0 1 3.674-3.663h29.383a3.672 3.672 0 0 1 3.673 3.663v4.884zm0 19.535v29.303H6.121v-2.442h3.674c2.7 0 4.897-2.19 4.897-4.883 0-.352-.042-.694-.113-1.023-.023-.11-.068-.21-.099-.318a4.991 4.991 0 0 0-.214-.631c-.053-.12-.123-.227-.185-.341a4.848 4.848 0 0 0-.306-.512c-.08-.11-.173-.21-.26-.315a4.735 4.735 0 0 0-.387-.417c-.034-.033-.06-.074-.098-.106.036-.032.063-.074.098-.107.14-.13.262-.272.386-.417.09-.105.181-.204.26-.315.117-.162.211-.336.307-.512.061-.115.132-.222.185-.34.09-.202.152-.417.214-.632.03-.107.076-.207.099-.317.071-.33.113-.672.113-1.023 0-.352-.042-.694-.113-1.024-.023-.11-.068-.21-.099-.317a5.008 5.008 0 0 0-.214-.631c-.053-.12-.123-.227-.185-.34a4.869 4.869 0 0 0-.306-.512c-.08-.111-.173-.212-.26-.315a4.74 4.74 0 0 0-.387-.418c-.034-.033-.06-.074-.098-.106.036-.032.063-.073.098-.106.14-.131.262-.273.386-.418.09-.105.181-.204.26-.315a4.8 4.8 0 0 0 .307-.512c.061-.114.132-.222.185-.34.09-.201.152-.417.214-.632.03-.107.076-.207.099-.317.071-.33.113-.671.113-1.023 0-.351-.042-.694-.113-1.023-.023-.11-.068-.21-.099-.317a4.986 4.986 0 0 0-.214-.632c-.053-.12-.123-.227-.185-.34a4.808 4.808 0 0 0-.306-.512c-.08-.111-.173-.211-.26-.315a4.738 4.738 0 0 0-.387-.418c-.034-.033-.06-.074-.098-.106.036-.032.063-.073.098-.106.14-.13.262-.272.386-.418.09-.105.181-.204.26-.314.117-.163.211-.336.307-.512.061-.115.132-.223.185-.341.09-.201.152-.416.214-.631.03-.108.076-.208.099-.318.071-.33.113-.671.113-1.023 0-2.693-2.197-4.883-4.897-4.883H6.122V13.43h36.73v17.093zm0 36.629c0 .241-.027.474-.07.702-.014.07-.04.14-.059.21a3.58 3.58 0 0 1-.139.447c-.032.08-.073.154-.11.23-.06.125-.124.247-.198.364a3.081 3.081 0 0 1-.168.236 3.539 3.539 0 0 1-.693.699 3.63 3.63 0 0 1-.354.243c-.048.03-.1.054-.148.08a3.78 3.78 0 0 1-.491.223l-.026.007c-.2.07-.41.124-.626.16-.007 0-.01.004-.016.005a3.7 3.7 0 0 1-.575.057H9.795a3.673 3.673 0 0 1-3.673-3.663V62.27h36.73v4.883zM4.897 54.943a2.448 2.448 0 0 1-2.448-2.441 2.448 2.448 0 0 1 2.448-2.442h4.898a2.448 2.448 0 0 1 2.448 2.442 2.448 2.448 0 0 1-2.448 2.441H4.897zm0-12.21h4.898a2.448 2.448 0 0 1 2.448 2.443 2.448 2.448 0 0 1-2.448 2.442H4.897a2.448 2.448 0 0 1-2.448-2.442 2.448 2.448 0 0 1 2.448-2.442zm0-7.325h4.898a2.448 2.448 0 0 1 2.448 2.442 2.448 2.448 0 0 1-2.448 2.442H4.897A2.448 2.448 0 0 1 2.45 37.85a2.448 2.448 0 0 1 2.448-2.442zm0-7.326h4.898a2.448 2.448 0 0 1 2.448 2.442 2.448 2.448 0 0 1-2.448 2.442H4.897a2.448 2.448 0 0 1-2.448-2.442 2.448 2.448 0 0 1 2.448-2.442zM55.78 69.161c-.291 0-.569.107-.793.291-.992.813-2.374 1.364-3.565 1.364v-.001h-7.344c.04-.054.07-.116.109-.171.066-.094.121-.192.184-.289.14-.218.26-.447.368-.682a5.91 5.91 0 0 0 .127-.297c.098-.25.177-.507.242-.772.025-.105.057-.207.078-.314.07-.37.115-.748.115-1.137V30.524a2.447 2.447 0 0 1 2.448-2.442 2.448 2.448 0 0 1 2.45 2.442V45.82c.008.352.05 1.232.242 2.263.022.114.048.222.072.334.36 1.69.985 2.994 1.864 3.865a4.236 4.236 0 0 0 3.042 1.247c.674 0 1.221-.54 1.221-1.207s-.547-1.208-1.22-1.208c-2.351 0-2.773-3.88-2.773-5.187V30.524c0-2.693-2.197-4.883-4.898-4.883-.896 0-1.724.258-2.448.678V6.105C45.3 2.739 42.554 0 39.178 0H9.795C6.419 0 3.673 2.739 3.673 6.105v19.709C1.567 26.359 0 28.254 0 30.524c0 1.467.664 2.767 1.692 3.663C.664 35.083 0 36.384 0 37.85c0 1.466.664 2.767 1.692 3.663C.664 42.409 0 43.709 0 45.176c0 1.466.664 2.766 1.692 3.663C.664 49.735 0 51.035 0 52.502c0 2.27 1.567 4.164 3.673 4.71v9.941c0 3.366 2.746 6.105 6.122 6.105h29.383c.228 0 .443-.043.664-.067.176.041.36.067.56.067h11.02c1.779 0 3.709-.732 5.144-1.924.883-.734.362-2.173-.787-2.173z" mask="url(#d)"/>
        </g>
        <path d="M0 0h270v160H0z"/>
    </g>
</svg>
