<svg width="42" height="42" viewBox="0 0 42 42" fill="none" xmlns="http://www.w3.org/2000/svg">
<path fill-rule="evenodd" clip-rule="evenodd" d="M0 21C0 9.40202 9.40202 0 21 0V0C32.598 0 42 9.40202 42 21V21C42 32.598 32.598 42 21 42V42C9.40202 42 0 32.598 0 21V21Z" fill="#ED0000"/>
<path fill-rule="evenodd" clip-rule="evenodd" d="M4.26777 0.732239C3.29146 -0.24408 1.70854 -0.24408 0.732233 0.732239C-0.244078 1.70854 -0.244078 3.29146 0.732233 4.26776L4.96447 8.5L0.732233 12.7322C-0.244078 13.7085 -0.244078 15.2915 0.732233 16.2678C1.70854 17.2441 3.29146 17.2441 4.26777 16.2678L8.5 12.0355L12.7322 16.2678C13.7085 17.2441 15.2915 17.2441 16.2678 16.2678C17.2441 15.2915 17.2441 13.7085 16.2678 12.7322L12.0355 8.5L16.2678 4.26776C17.2441 3.29146 17.2441 1.70854 16.2678 0.732239C15.2915 -0.24408 13.7085 -0.24408 12.7322 0.732239L8.5 4.96448L4.26777 0.732239Z" transform="translate(12.5 12.5)" fill="white"/>
</svg>
