<svg width="42" height="42" viewBox="0 0 42 42" fill="none" xmlns="http://www.w3.org/2000/svg">
<path fill-rule="evenodd" clip-rule="evenodd" d="M0 21C0 9.40202 9.40202 0 21 0C32.598 0 42 9.40202 42 21C42 32.598 32.598 42 21 42C9.40202 42 0 32.598 0 21Z" fill="#17C11E"/>
<path fill-rule="evenodd" clip-rule="evenodd" d="M20.2473 0.744188C19.2524 -0.248063 17.6407 -0.248063 16.6458 0.744188L7.87041 9.51956L4.34503 5.99419C3.35016 5.00194 1.74103 5.00194 0.746156 5.99419C-0.248719 6.98906 -0.248719 8.60081 0.746156 9.59569L5.69953 14.5491C5.79666 14.7013 5.86491 14.8641 5.99616 14.9953C6.51328 15.5098 7.19316 15.7434 7.87041 15.7277C8.54766 15.7434 9.23016 15.5098 9.74728 14.9953C9.87591 14.8641 9.94416 14.7013 10.0413 14.5491L20.2473 4.34569C21.2395 3.35081 21.2395 1.73906 20.2473 0.744188Z" transform="translate(10.499 13.125)" fill="white"/>
</svg>
