<svg width="42" height="42" viewBox="0 0 42 42" fill="none" xmlns="http://www.w3.org/2000/svg">
<path fill-rule="evenodd" clip-rule="evenodd" d="M0 21C0 9.40202 9.40202 0 21 0V0C32.598 0 42 9.40202 42 21V21C42 32.598 32.598 42 21 42V42C9.40202 42 0 32.598 0 21V21Z" fill="#F2C94C"/>
<path fill-rule="evenodd" clip-rule="evenodd" d="M5 2.5C5 1.11929 3.88071 0 2.5 0C1.11929 0 0 1.11929 0 2.5V12.5C0 13.8807 1.11929 15 2.5 15C3.88071 15 5 13.8807 5 12.5V2.5ZM2.5 22.5C1.11929 22.5 0 21.3807 0 20C0 18.6193 1.11929 17.5 2.5 17.5C3.88071 17.5 5 18.6193 5 20C5 21.3807 3.88071 22.5 2.5 22.5Z" transform="translate(18.5 9.5)" fill="white"/>
</svg>
