<svg xmlns="http://www.w3.org/2000/svg" viewBox="0 0 68 45">
  <g fill="none">
    <path fill="#039" d="M0 0h68v45H0z"/>
    <path d="M34 5l-.563 1.725h-1.83l1.478 1.067-.563 1.733L34 8.458l1.477 1.067-.562-1.733 1.477-1.067h-1.83zm.562 31.725L34 35l-.563 1.725h-1.83l1.478 1.067-.563 1.733L34 38.458l1.477 1.067-.562-1.733 1.477-1.067zM18.889 23.458l1.477 1.067-.562-1.733 1.477-1.067h-1.83L18.889 20l-.563 1.725h-1.83l1.478 1.067-.563 1.733zm7.555-16.45l-.562 1.725h-1.83l1.477 1.075-.562 1.725 1.477-1.066 1.478 1.066-.563-1.725 1.478-1.075h-1.83zM20.912 12.5l-.563 1.725h-1.83l1.478 1.067-.563 1.733 1.478-1.067 1.477 1.067-.562-1.733 1.477-1.067h-1.821zm.571 16.725l-.571-1.725-.563 1.725h-1.83l1.478 1.067-.563 1.733 1.478-1.067 1.477 1.067-.562-1.733 1.477-1.067zm5.524 5.492l-.563-1.725-.562 1.725h-1.83l1.477 1.066-.562 1.734 1.477-1.075 1.478 1.075-.563-1.734 1.478-1.066zm24.496-12.992h-1.83L49.111 20l-.563 1.725h-1.83l1.478 1.067-.563 1.733 1.478-1.067 1.477 1.067-.562-1.733zM41.555 7.008l-.562 1.725h-1.83l1.477 1.075-.562 1.725 1.477-1.066 1.478 1.066-.563-1.725 1.478-1.075h-1.83zm4.618 8.284l-.563 1.733 1.478-1.067 1.477 1.067-.562-1.733 1.477-1.067h-1.83l-.562-1.725-.571 1.725h-1.822zm1.477 13.933l-.562-1.725-.571 1.725h-1.822l1.478 1.067-.563 1.733 1.478-1.067 1.477 1.067-.562-1.733 1.477-1.067zm-5.532 5.492l-.563-1.725-.562 1.725h-1.83l1.477 1.066-.562 1.734 1.477-1.075 1.478 1.075-.563-1.734 1.478-1.066z" fill="#FC0"/>
  </g>
</svg>
