<?xml version="1.0" encoding="UTF-8" standalone="no"?>
<svg
   id="Capa_1"
   data-name="Capa 1"
   viewBox="0 0 1000 160"
   version="1.1"
   sodipodi:docname="S4H-Logo-Full.svg"
   width="1000"
   height="160"
   inkscape:version="1.2.1 (9c6d41e4, 2022-07-14)"
   xmlns:inkscape="http://www.inkscape.org/namespaces/inkscape"
   xmlns:sodipodi="http://sodipodi.sourceforge.net/DTD/sodipodi-0.dtd"
   xmlns="http://www.w3.org/2000/svg"
   xmlns:svg="http://www.w3.org/2000/svg"
   xmlns:rdf="http://www.w3.org/1999/02/22-rdf-syntax-ns#"
   xmlns:cc="http://creativecommons.org/ns#"
   xmlns:dc="http://purl.org/dc/elements/1.1/">
  <title
     id="title5408">Smart4Health logo </title>
  <sodipodi:namedview
     id="namedview165"
     pagecolor="#ffffff"
     bordercolor="#666666"
     borderopacity="1.0"
     inkscape:showpageshadow="2"
     inkscape:pageopacity="0.0"
     inkscape:pagecheckerboard="0"
     inkscape:deskcolor="#d1d1d1"
     showgrid="false"
     inkscape:zoom="1.0744727"
     inkscape:cx="729.19489"
     inkscape:cy="-82.365983"
     inkscape:window-width="2560"
     inkscape:window-height="1387"
     inkscape:window-x="1200"
     inkscape:window-y="213"
     inkscape:window-maximized="0"
     inkscape:current-layer="Capa_1"
     showguides="false" />
  <defs
     id="defs134">
    <style
       id="style132">.cls-1{fill:#06344f;}.cls-2{fill:#34a1ad;}</style>
  </defs>
  <rect
     style="fill:#ffffff;stroke:none;stroke-width:1.4;stroke-dasharray:4.2, 4.2;paint-order:stroke markers fill;stop-color:#000000"
     id="rect3918"
     width="998.59326"
     height="158.59996"
     x="0.69969553"
     y="0.70001984"
     rx="20.402735"
     ry="20.402735" />
  <g
     id="g4717"
     transform="translate(20.006546,19.999998)">
    <path
       class="cls-1"
       d="m 68.48,57.23 a 38.28,38.28 0 0 0 -13,-3.2 l -25.77,-3 a 28.56,28.56 0 0 1 -7.89,-1.71 5.63,5.63 0 0 1 -3.2,-3.52 29.06,29.06 0 0 1 -0.78,-8 27.72,27.72 0 0 1 0.78,-7.57 7.09,7.09 0 0 1 3.59,-4.14 20.17,20.17 0 0 1 7.5,-2.19 109.33,109.33 0 0 1 13.12,-0.62 q 7.65,0 16.24,0.54 8.59,0.54 14.33,1.48 v -15 A 136.1,136.1 0 0 0 57.94,8.2 Q 48.4,7.35 39.35,7.34 26.07,7.34 17.8,9.53 a 22.38,22.38 0 0 0 -13,9 Q 0,25.3 0,38.57 A 51.57,51.57 0 0 0 2,54 18.49,18.49 0 0 0 9.19,63.76 q 5.22,3.67 15.07,4.76 l 25.61,3 c 3.53,0.31 6.06,0.89 7.57,1.72 a 6,6 0 0 1 3,3.9 36.82,36.82 0 0 1 0.7,8.44 33.06,33.06 0 0 1 -0.78,8.19 7.29,7.29 0 0 1 -3.36,4.45 18.63,18.63 0 0 1 -7.34,2.43 95.29,95.29 0 0 1 -13.12,0.7 q -14.2,0 -33.42,-1.88 v 15.46 q 8.13,1.07 18.88,1.72 10.75,0.65 19.68,0.63 12.64,0 20.3,-2.11 A 20.62,20.62 0 0 0 74.18,106 q 4.51,-7.1 4.52,-21.31 0,-12.81 -2.81,-19 a 15.54,15.54 0 0 0 -7.41,-8.46 z"
       id="path138" />
    <path
       class="cls-1"
       d="m 196.33,38.57 q -5.16,-3.43 -15.15,-3.43 -18.75,0 -24.36,11.71 h -1.1 a 15.83,15.83 0 0 0 -7.26,-8.9 q -5.07,-2.82 -14.91,-2.81 -9.53,0 -15.23,3 A 18.19,18.19 0 0 0 110,46.85 h -1.09 L 108.44,36.39 H 93.1 V 116 h 16.56 V 75 a 74.06,74.06 0 0 1 1,-14.21 11.49,11.49 0 0 1 4.53,-7.34 q 3.51,-2.5 10.85,-2.5 7.19,0 10.08,1.33 c 1.92,0.88 3.2,2.81 3.82,5.77 0.62,2.96 0.94,8.05 0.94,15.23 V 116 h 16.55 V 75 a 71,71 0 0 1 1.09,-14.29 11.63,11.63 0 0 1 4.53,-7.34 q 3.44,-2.41 10.78,-2.42 c 4.79,0 8.14,0.44 10.07,1.33 1.93,0.89 3.2,2.81 3.83,5.77 0.63,2.96 0.93,8.05 0.93,15.23 V 116 h 16.56 V 66.37 q 0,-11.25 -1.88,-17.8 a 17.22,17.22 0 0 0 -7.01,-10 z"
       id="path140" />
    <path
       class="cls-1"
       d="m 275.81,38.34 q -7.11,-3.21 -21.78,-3.2 a 169,169 0 0 0 -29.52,2.34 v 13.9 q 3.59,-0.63 11.09,-1.1 7.5,-0.47 12.65,-0.46 10.77,0 15.15,0.93 a 8.13,8.13 0 0 1 6,4.3 q 1.63,3.36 1.64,11.32 v 3.43 q -18.12,-0.61 -27,-0.62 -9.69,0 -15,2.42 a 14.18,14.18 0 0 0 -7.5,7.65 q -2.17,5.23 -2.18,14.6 0,12.81 6,18.12 6,5.31 18.82,5.31 a 52.38,52.38 0 0 0 16.09,-2.28 17.82,17.82 0 0 0 10.62,-9.13 h 0.94 l 0.62,10.15 H 287.6 V 67 q 0,-12.33 -2.34,-18.89 -2.34,-6.56 -9.45,-9.77 z m -4.76,45.05 q 0,9.06 -2.81,13.74 a 10.83,10.83 0 0 1 -6.09,4.61 34.56,34.56 0 0 1 -10.47,1.33 49.94,49.94 0 0 1 -10.46,-0.78 6.28,6.28 0 0 1 -4.45,-3.05 Q 235.6,97 235.6,92.13 a 19.26,19.26 0 0 1 1,-7.18 5.43,5.43 0 0 1 3.6,-3.12 30.06,30.06 0 0 1 8,-0.78 H 271 Z"
       id="path142" />
    <path
       class="cls-1"
       d="m 321,50.6 h -1.25 L 319.13,36.39 H 304 V 116 h 16.55 V 82.92 q 0,-11.55 2.27,-18 a 16.54,16.54 0 0 1 8,-9.52 q 5.7,-3 16.32,-3 V 35.14 q -10.62,0 -16.94,3.35 -6.32,3.35 -9.2,12.11 z"
       id="path144" />
    <polygon
       class="cls-1"
       points="593.92,116.03 611.41,116.03 611.41,8.59 593.92,8.59 593.92,53.72 543.95,53.72 543.95,8.59 526.31,8.59 526.31,116.03 543.95,116.03 543.95,70.12 593.92,70.12 "
       id="polygon146" />
    <path
       class="cls-1"
       d="m 685.64,39.35 q -7,-4.22 -22.26,-4.21 -15.93,0 -23.58,4.21 A 20,20 0 0 0 629.8,52 q -2.34,8.43 -2.34,24.36 0,16.71 2.34,25 a 18.55,18.55 0 0 0 10.2,12.09 q 7.8,3.83 24.52,3.83 7.49,0 15.46,-0.63 a 104.56,104.56 0 0 0 13.11,-1.72 v -13.74 a 233.46,233.46 0 0 1 -24.67,1.56 q -11.71,0 -16.63,-1.56 -4.92,-1.56 -6.25,-5.54 -1.32,-4 -1.32,-13.51 h 52 v -5.78 q 0,-16.71 -1.8,-24.75 a 18.48,18.48 0 0 0 -8.78,-12.26 z m -5.23,30.77 h -36.23 q 0.15,-9.06 1.4,-13.12 a 8.65,8.65 0 0 1 5.08,-5.7 q 3.83,-1.63 12.26,-1.64 7.33,0 10.85,1.4 a 9,9 0 0 1 5.07,5.63 q 1.56,4.22 1.57,13.11 z"
       id="path148" />
    <path
       class="cls-1"
       d="m 765.76,38.34 q -7.11,-3.21 -21.78,-3.2 a 169.09,169.09 0 0 0 -29.52,2.34 v 13.9 q 3.6,-0.63 11.09,-1.1 7.49,-0.47 12.65,-0.46 10.77,0 15.15,0.93 a 8.11,8.11 0 0 1 6,4.3 Q 761,58.41 761,66.37 v 3.43 q -18.12,-0.61 -27,-0.62 -9.68,0 -15,2.42 a 14.13,14.13 0 0 0 -7.49,7.65 q -2.19,5.23 -2.19,14.6 0,12.81 6,18.12 6,5.31 18.82,5.31 a 52.38,52.38 0 0 0 16.08,-2.28 17.8,17.8 0 0 0 10.62,-9.13 h 0.94 L 762.4,116 h 15.15 V 67 q 0,-12.33 -2.34,-18.89 -2.34,-6.56 -9.45,-9.77 z M 761,83.39 q 0,9.06 -2.81,13.74 a 10.83,10.83 0 0 1 -6.09,4.61 34.56,34.56 0 0 1 -10.47,1.33 49.94,49.94 0 0 1 -10.46,-0.78 6.28,6.28 0 0 1 -4.45,-3.05 q -1.17,-2.26 -1.17,-7.11 a 19.26,19.26 0 0 1 1,-7.18 5.43,5.43 0 0 1 3.6,-3.12 30.06,30.06 0 0 1 8,-0.78 H 761 Z"
       id="path150" />
    <rect
       class="cls-1"
       x="796.90002"
       width="16.549999"
       height="116.03"
       id="rect152"
       y="0" />
    <path
       class="cls-1"
       d="m 858.53,99 c -1,-1.51 -1.48,-3.94 -1.48,-7.27 v -12 0 -28.67 h 18.58 V 36.39 H 857.05 V 13.27 H 840.5 v 23.12 h -15.93 v 14.67 h 15.93 v 41 c 0.24,6.94 1.35,12 3.2,15.3 2.13,3.75 8.78,8.67 14.13,8.59 7.44,-0.11 8.64,0 19.37,0 V 102.68 A 85.32,85.32 0 0 1 864,102 c -2.65,-0.5 -4.48,-1.49 -5.47,-3 z"
       id="path154" />
    <path
       class="cls-1"
       d="m 392.37,99 c -1,-1.51 -1.48,-3.94 -1.48,-7.27 v -12 0 -28.67 h 18.58 V 36.39 H 390.89 V 13.27 h -16.55 v 23.12 h -15.93 v 14.67 h 15.93 v 41 c 0.24,6.94 1.34,12 3.2,15.3 2.13,3.75 8.78,8.67 14.13,8.59 7.44,-0.11 8.64,0 19.36,0 v -13.27 a 85.25,85.25 0 0 1 -13.19,-0.71 q -3.99,-0.7 -5.47,-2.97 z"
       id="path156" />
    <path
       class="cls-1"
       d="m 958.05,48.57 a 16.61,16.61 0 0 0 -7.58,-9.92 q -5.61,-3.36 -16.7,-3.36 -10.15,0 -15.93,2.66 a 17.55,17.55 0 0 0 -8.59,8.12 h -1.1 V 0 H 891.6 v 116 h 16.55 V 75 a 64.88,64.88 0 0 1 1.18,-14.14 11.48,11.48 0 0 1 5.15,-7.41 q 4,-2.5 12.1,-2.5 c 5.41,0 9.22,0.44 11.4,1.33 2.18,0.89 3.64,2.81 4.37,5.77 0.73,2.96 1.1,8.05 1.1,15.23 V 116 H 960 V 66.37 q 0,-11.25 -1.95,-17.8 z"
       id="path158" />
    <circle
       class="cls-2"
       cx="486"
       cy="110.48"
       r="9.5200005"
       id="circle160" />
    <polygon
       class="cls-2"
       points="513.43,76.67 441.55,76.67 477.31,30.95 477.31,66.67 494.8,66.67 494.8,8.59 474.22,8.59 420.97,78.39 420.97,92.45 513.43,92.45 "
       id="polygon162" />
  </g>
  <metadata
     id="metadata944">
    <rdf:RDF>
      <cc:Work
         rdf:about="">
        <dc:title>Smart4Health logo </dc:title>
        <dc:rights>
          <cc:Agent>
            <dc:title>(c) The Smart4Health consortium partners</dc:title>
          </cc:Agent>
        </dc:rights>
      </cc:Work>
    </rdf:RDF>
  </metadata>
</svg>
