<svg xmlns="http://www.w3.org/2000/svg" xmlns:xlink="http://www.w3.org/1999/xlink" width="270" height="160"
    viewBox="0 0 270 160">
    <defs>
        <path id="a"
            d="M4.747.15a4.562 4.562 0 0 0-4.55 4.574v61.185a6.056 6.056 0 0 0 4.735 5.969c.179.106.383.165.591.172h62.1a4.562 4.562 0 0 0 4.08-4.55V21.74a4.574 4.574 0 0 0-3.033-4.328v-3.588c0-.682-.552-1.233-1.233-1.233H61.73a4.548 4.548 0 0 0-4.438-3.613H26.778a2.084 2.084 0 0 1-2.071-2.084v-2.17a4.561 4.561 0 0 0-4.55-4.575H4.747zm-.944 68.064A3.693 3.693 0 0 1 2.73 65.53V4.792c0-1.154.928-2.094 2.082-2.106H20.22a2.106 2.106 0 0 1 2.083 2.106V6.96a4.547 4.547 0 0 0 4.536 4.545H57.34a2.083 2.083 0 0 1 1.849 1.146H9.694c-.68 0-1.232.55-1.232 1.232v4.262H5.59c-.68 0-1.232.55-1.232 1.232V68.67a3.879 3.879 0 0 1-.555-.457zm7.12-53.142h55.268v2.067H51.75c-.272 0-.545.024-.813.073l-.259.073a3.839 3.839 0 0 0-.517.147l-.283.123c-.148.07-.29.146-.43.232l-.284.171-.148.098H10.923v-2.984zm.767 53.307s0-.123.098-.174c.124-.246.222-.505.32-.764a.18.18 0 0 1 0-.073c.094-.277.166-.562.21-.852v-.21c.07-.29.115-.587.136-.886V30.482a2.108 2.108 0 0 1 2.084-2.058h30.515a4.562 4.562 0 0 0 4.55-4.549v-2.22a2.12 2.12 0 0 1 .654-1.527c.38-.372.887-.578 1.418-.58h15.597a2.096 2.096 0 0 1 1.899 2.107v45.343a2.096 2.096 0 0 1-1.8 2.12H11.22c.175-.235.332-.482.469-.74zM6.752 20.593h40.669a.902.902 0 0 0 0 .184l-.074.185a4.4 4.4 0 0 0-.087.812v2.169a2.083 2.083 0 0 1-2.036 2.13H14.616a4.562 4.562 0 0 0-4.555 4.521v34.917a3.763 3.763 0 0 1-1.235 2.82 4.09 4.09 0 0 1-.482.358l-.135.072c-.131.08-.267.15-.408.21h-.123c-.148 0-.309.112-.47.147h-.456V20.593z" />
        <path id="c"
            d="M7.922.188c-.683 0-1.238.555-1.238 1.238v5.25H1.435c-.683 0-1.238.554-1.238 1.237v7.28c0 .684.555 1.237 1.238 1.237h5.249v5.237c0 .683.555 1.238 1.238 1.238h7.267c.683 0 1.237-.555 1.237-1.238V16.43h5.25c.684 0 1.237-.553 1.237-1.238V7.913c0-.683-.553-1.238-1.238-1.238h-5.249V1.426c0-.683-.554-1.238-1.237-1.238H7.922zm-5.2 9.035h5.22c.68 0 1.23-.555 1.23-1.239V2.729h4.766v5.255c0 .684.551 1.24 1.23 1.24h5.221v4.808h-5.22c-.68 0-1.231.555-1.231 1.24v5.242H9.173V15.27c0-.684-.552-1.24-1.231-1.24h-5.22V9.224z" />
        <path id="e" d="M0 0h55.955v71.901H0z" />
        <path id="g" d="M.028.087h24.663v35.666H.028z" />
        <path id="i" d="M0 .024h21.233v37.31H0z" />
    </defs>
    <g fill="none" fill-rule="evenodd">
        <g transform="translate(60 86.743)">
            <mask id="b" fill="#fff">
                <use xlink:href="#a" />
            </mask>
            <path fill="var(--color-primary)" fill-rule="nonzero" d="M-.79 73.038H72.69V-.839H-.791z" mask="url(#b)" />
        </g>
        <g transform="translate(88.444 123.879)">
            <mask id="d" fill="#fff">
                <use xlink:href="#c" />
            </mask>
            <path fill="var(--color-secondary)" fill-rule="nonzero" d="M-.79 23.892H23.9V-.799H-.79z" mask="url(#d)" />
        </g>
        <g transform="translate(154.617 86.704)">
            <mask id="f" fill="#fff">
                <use xlink:href="#e" />
            </mask>
            <path fill="var(--color-primary)" fill-rule="nonzero"
                d="M42.058 10.785H6.008V5.992a3.604 3.604 0 0 1 3.605-3.595h28.84a3.604 3.604 0 0 1 3.605 3.595v4.793zm0 19.174v28.76H6.008v-2.396h3.605c2.651 0 4.807-2.15 4.807-4.793 0-.346-.04-.681-.111-1.005-.023-.107-.067-.206-.097-.312a4.899 4.899 0 0 0-.21-.619c-.052-.118-.12-.223-.182-.334a4.758 4.758 0 0 0-.3-.503c-.078-.108-.17-.207-.256-.309a4.648 4.648 0 0 0-.379-.41c-.033-.032-.06-.072-.096-.104.035-.031.062-.072.096-.104.137-.128.258-.267.379-.41.088-.103.178-.2.256-.31.114-.158.206-.329.3-.501.06-.113.13-.218.182-.334.089-.198.149-.409.21-.62.03-.106.074-.204.097-.312.07-.323.11-.659.11-1.004s-.04-.68-.11-1.004c-.023-.108-.067-.206-.097-.312a4.915 4.915 0 0 0-.21-.62c-.052-.116-.12-.222-.182-.334a4.779 4.779 0 0 0-.3-.502c-.078-.109-.17-.207-.256-.309a4.653 4.653 0 0 0-.379-.41c-.033-.032-.06-.073-.096-.104.035-.03.062-.072.096-.104a4.92 4.92 0 0 0 .379-.41c.088-.103.178-.2.256-.31.114-.159.206-.329.3-.501.06-.113.13-.218.182-.334.089-.198.149-.41.21-.62.03-.105.074-.204.097-.312.07-.323.11-.659.11-1.004s-.04-.68-.11-1.004c-.023-.108-.067-.206-.097-.312a4.894 4.894 0 0 0-.21-.62c-.052-.117-.12-.222-.182-.333a4.719 4.719 0 0 0-.3-.503c-.078-.109-.17-.207-.256-.309a4.65 4.65 0 0 0-.379-.41c-.033-.032-.06-.073-.096-.104.035-.031.062-.072.096-.104.137-.129.258-.267.379-.41.088-.103.178-.2.256-.309.114-.16.206-.33.3-.502.06-.113.13-.219.182-.335.089-.197.149-.408.21-.62.03-.105.074-.203.097-.31.07-.324.11-.66.11-1.005 0-2.644-2.155-4.793-4.806-4.793H6.008V13.182h36.05V29.96zm0 35.95c0 .237-.027.465-.07.69-.013.069-.039.136-.057.205-.038.15-.08.298-.136.44-.032.077-.073.15-.109.225a3.314 3.314 0 0 1-.194.358c-.05.08-.107.156-.165.231a3.473 3.473 0 0 1-.68.686 3.563 3.563 0 0 1-.347.238c-.047.03-.098.053-.146.08a3.71 3.71 0 0 1-.482.217l-.025.007a3.683 3.683 0 0 1-.615.157c-.006 0-.01.004-.016.005-.185.03-.37.057-.563.057H9.613a3.605 3.605 0 0 1-3.605-3.596v-4.793h36.05v4.793zM4.807 53.926a2.402 2.402 0 0 1-2.404-2.396 2.402 2.402 0 0 1 2.404-2.397h4.806a2.402 2.402 0 0 1 2.404 2.397 2.402 2.402 0 0 1-2.404 2.396H4.807zm0-11.984h4.806a2.403 2.403 0 0 1 2.404 2.397 2.402 2.402 0 0 1-2.404 2.397H4.807a2.402 2.402 0 0 1-2.404-2.397 2.403 2.403 0 0 1 2.404-2.397zm0-7.19h4.806a2.402 2.402 0 0 1 2.404 2.397 2.403 2.403 0 0 1-2.404 2.397H4.807a2.403 2.403 0 0 1-2.404-2.397 2.402 2.402 0 0 1 2.404-2.397zm0-7.19h4.806a2.402 2.402 0 0 1 2.404 2.397 2.402 2.402 0 0 1-2.404 2.396H4.807a2.402 2.402 0 0 1-2.404-2.396 2.402 2.402 0 0 1 2.404-2.397zM54.746 67.88c-.286 0-.558.105-.779.286-.973.798-2.33 1.339-3.498 1.339v-.001h-7.208c.04-.053.068-.114.107-.168.065-.092.119-.188.18-.284.138-.213.256-.439.361-.67a5.8 5.8 0 0 0 .125-.29c.097-.246.173-.499.237-.759.025-.103.057-.202.077-.308.068-.363.113-.733.113-1.116V29.96a2.402 2.402 0 0 1 2.403-2.397 2.402 2.402 0 0 1 2.404 2.397V44.97c.008.344.05 1.208.238 2.22.021.113.047.219.07.328.354 1.66.967 2.939 1.83 3.794.808.801 1.84 1.224 2.986 1.224.662 0 1.198-.53 1.198-1.185 0-.654-.536-1.185-1.198-1.185-2.307 0-2.721-3.808-2.721-5.092V29.96c0-2.644-2.156-4.793-4.807-4.793-.88 0-1.693.254-2.403.666V5.992C44.461 2.688 41.766 0 38.453 0H9.613C6.3 0 3.605 2.688 3.605 5.992v19.344C1.538 25.87 0 27.73 0 29.959c0 1.44.651 2.715 1.66 3.595C.652 34.434 0 35.71 0 37.15c0 1.44.651 2.715 1.66 3.595C.652 41.624 0 42.9 0 44.339c0 1.44.651 2.716 1.66 3.595C.652 48.814 0 50.09 0 51.53c0 2.227 1.538 4.087 3.605 4.622v9.757c0 3.304 2.695 5.992 6.008 5.992h28.84c.223 0 .435-.042.651-.066.173.041.353.066.55.066H50.47c1.747 0 3.641-.718 5.05-1.888.867-.72.354-2.133-.773-2.133z"
                mask="url(#f)" />
        </g>
        <g transform="translate(160.346 40.965)">
            <mask id="h" fill="#fff">
                <use xlink:href="#g" />
            </mask>
            <path fill="var(--color-secondary)" fill-rule="nonzero"
                d="M24.25 24.414a1.284 1.284 0 0 0-1.811.126l-5.483 6.3C16.605 21.61 13.318 13.126 8 6.279A43.309 43.309 0 0 0 2.128.088L.028 1.67A40.691 40.691 0 0 1 8 10.712a39.98 39.98 0 0 1 6.413 21.03l-6.931-6.31a1.284 1.284 0 0 0-1.729 1.9l8.884 8.086c.533.486 1.36.437 1.833-.106l7.906-9.087a1.284 1.284 0 0 0-.126-1.811"
                mask="url(#h)" />
        </g>
        <g transform="translate(90.815 37.41)">
            <mask id="j" fill="#fff">
                <use xlink:href="#i" />
            </mask>
            <path fill="var(--color-secondary)" fill-rule="nonzero"
                d="M19.684.024A43.25 43.25 0 0 0 4.642 16.671 42.541 42.541 0 0 0 0 36.05a1.284 1.284 0 1 0 2.568 0c0-4.459.73-8.749 2.074-12.76C7.488 14.8 13.094 7.56 20.406 2.624c.273-.185.549-.366.827-.544L19.684.024z"
                mask="url(#j)" />
        </g>
        <path fill="var(--color-primary)" fill-rule="nonzero"
            d="M160.498 39.443l-2.133 1.607-26.814 20.205-17.364-23.043-1.56-2.07-13.843-18.37 20.967-15.8 8.639 11.464c.446.591 1.14.69 1.734.242l11.472-8.645 23.384 31.032-4.482 3.378zM138.722 4.1l-9.099 6.857-6.852-9.093L138.722 4.1zm28.981 31.463l-14.135-18.758-10.738-14.25c-.075-.1-.224-.297-.398-.322-.172-.024-.247-.123-.421-.148l-21.844-3.06c-.175-.026-.347-.05-.446.026-.174-.025-.273.05-.47.199l-4.068 3.065-18.878 14.226c-.591.445-.69 1.135-.248 1.728L110.5 37.434l1.549 2.055 18.273 24.25c.445.585 1.131.683 1.721.244l28.331-21.348 2.1-1.583 4.995-3.763c.585-.448.68-1.137.235-1.726z" />
        <path fill="#272F67" fill-rule="nonzero"
            d="M110.5 37.433h-.001l1.549 2.056-1.549-2.056zM160.373 42.635l2.1-1.583-2.1 1.583z" />
        <path fill="var(--color-primary)" fill-rule="nonzero"
            d="M111.95 25.074a5.333 5.333 0 1 0 0-10.667 5.333 5.333 0 0 0 0 10.667zm0-2.37a2.963 2.963 0 1 1 0-5.926 2.963 2.963 0 0 1 0 5.926zM121.469 40.155l11.572-8.72c.598-.45.712-1.13.284-1.698-.429-.569-1.112-.646-1.711-.195l-11.572 8.72c-.598.451-.713 1.13-.284 1.699.357.473 1.212.57 1.71.194M151.444 24.988l-26.417 19.906c-.594.448-.704 1.124-.276 1.692.428.57 1.109.649 1.702.201l26.418-19.906c.593-.448.704-1.124.276-1.692-.428-.568-1.208-.574-1.703-.201M156.437 31.613L130.02 51.52c-.594.447-.704 1.124-.276 1.692.428.569 1.109.648 1.702.201l26.417-19.907c.594-.447.705-1.123.277-1.692-.357-.473-1.208-.573-1.703-.2" />
        <path d="M0-1h270v160H0z" />
    </g>
</svg>