<svg xmlns="http://www.w3.org/2000/svg" viewBox="0 0 100 100"><path d="M89.57 23.85L74.17 6.5a2.5 2.5 0 0 0-1.87-.84H30.12a2.5 2.5 0 0 0-2.5 2.5V50a2.5 2.5 0 0 0 5 0V10.66h37.14v14.96a2.5 2.5 0 0 0 2.5 2.5H85.2V80.1H48.35l-10.97-19a8.4 8.4 0 0 0-14.53 0L10.92 81.76a8.4 8.4 0 0 0 7.27 12.58h23.93a8.41 8.41 0 0 0 8.32-8.39c0-.28-.03-.57-.06-.85H87.7a2.5 2.5 0 0 0 2.5-2.5V25.5c0-.61-.22-1.2-.63-1.66zm-14.8-.73V14.7l7.47 8.42h-7.47zm-32.7 66.22H18.2a3.4 3.4 0 0 1-2.94-5.08L27.18 63.6a3.4 3.4 0 0 1 5.87 0l11.8 20.43.05.1a3.4 3.4 0 0 1-2.83 5.21zm.5-42.88h32.67a2.5 2.5 0 1 0 0-5H42.58a2.5 2.5 0 1 0 0 5zm-.35 12.06h33.02a2.5 2.5 0 1 0 0-5H42.22a2.5 2.5 0 1 0 0 5zm33.02 7.07H58.48a2.5 2.5 0 1 0 0 5h16.76a2.5 2.5 0 1 0 0-5zm-45.12-1.66a2.5 2.5 0 0 0-2.5 2.5v10.61a2.5 2.5 0 1 0 5 0v-10.6a2.5 2.5 0 0 0-2.5-2.5zm0 18a2.5 2.5 0 0 0-2.5 2.5v.45a2.5 2.5 0 1 0 5 0v-.46a2.5 2.5 0 0 0-2.5-2.5z"/></svg>