<svg viewBox="0 0 19 18"
  xmlns="http://www.w3.org/2000/svg">
  <g fillRule="nonzero">
    <path d="M18.147 8.708a.518.518 0 0 0-.52.52v4.734a2.336 2.336 0 0 1-2.332 2.332H3.874a2.336 2.336 0 0 1-2.332-2.332V9.151a.52.52 0 0 0-1.041 0v4.811a3.377 3.377 0 0 0 3.373 3.373h11.42a3.377 3.377 0 0 0 3.373-3.373V9.228a.521.521 0 0 0-.52-.52z" />
    <path d="M12.526 9.155l-2.42 2.421V1.016a.52.52 0 0 0-1.042 0v10.56l-2.42-2.42A.524.524 0 0 0 6.276 9a.5.5 0 0 0-.366.154.519.519 0 0 0 0 .736l3.307 3.312a.527.527 0 0 0 .366.154.5.5 0 0 0 .366-.154l3.308-3.308a.52.52 0 0 0-.733-.736l.001-.004z" />
  </g>
</svg>
