<svg xmlns="http://www.w3.org/2000/svg" viewBox="0 0 20 16">
  <g fill="currentColor" fill-rule="evenodd">
    <path d="M4.108 5.623a1.57 1.57 0 01-1.58-1.559 1.57 1.57 0 011.58-1.559c.873 0 1.58.698 1.58 1.559a1.57 1.57 0 01-1.58 1.559M10.745.021V.01H1.241C.557.01 0 .57 0 1.258v12.525l5.602-5.575.012-.01a.619.619 0 01.866.01l1.714 1.708L13.6 4.508c.117-.118.251-.278.46-.241.165 0 .305.124.42.242l5.517 5.574.003-.9-.011-7.933A1.256 1.256 0 0018.729 0l-7.984.02z" opacity=".2"/>
    <path fill-opacity=".4" d="M19.997 11.663l-5.98-6.016-2.926 2.988-.001.001-.262.267v.006l-.737.773-1.035 1.052 1.063 1.07a.63.63 0 010 .885l-.012.012a.618.618 0 01-.866-.012L5.979 9.401 0 15.429c.223.336.585.571 1.014.571h12.244l3.87-.005 1.61-.002A1.26 1.26 0 0020 14.74l-.003-3.077z"/>
  </g>
</svg>
