<svg xmlns="http://www.w3.org/2000/svg" viewBox="0 0 24 24">
  <path d="M0 0h24v24H0z" fill="none" />
  <path d="M18.2 6.69c1.54 0 2.8 1.2 2.8 2.66v4.29a2.74 2.74 0 0 1-2.8 2.66h-.49v3.37c0 .73-.63 1.33-1.4 1.33H7.64c-.77 0-1.4-.6-1.4-1.33V16.3H5.8c-1.54 0-2.8-1.2-2.8-2.66V9.35a2.74 2.74 0 0 1 2.8-2.66h.44V5.66A2.74 2.74 0 0 1 9.04 3h5.88c1.54 0 2.8 1.2 2.8 2.66v1.03h.48zM7.3 5.66v1.03h9.35V5.66a1.7 1.7 0 0 0-1.74-1.65H9.04A1.7 1.7 0 0 0 7.3 5.66zm9.35 14.02v-5.56H7.3v5.56c0 .18.15.32.34.32h8.67a.33.33 0 0 0 .34-.32zm3.3-6.04V9.35A1.7 1.7 0 0 0 18.2 7.7H5.8a1.7 1.7 0 0 0-1.74 1.65v4.3c0 .9.78 1.65 1.74 1.65h.44v-1.18h-.78a.52.52 0 0 1-.53-.5c0-.29.24-.51.53-.51h12.95c.3 0 .53.22.53.5s-.23.5-.53.5h-.7v1.19h.5a1.7 1.7 0 0 0 1.73-1.66zM8.73 16.5c-.28 0-.52-.25-.52-.56 0-.32.23-.57.52-.57h6.52c.28 0 .51.26.51.57 0 .31-.22.56-.5.56H8.73zm6.52 1.13c.29 0 .51.25.51.56 0 .31-.22.56-.5.56H8.73c-.29 0-.51-.25-.51-.56 0-.32.22-.57.5-.57h6.54zm2.84-9c.32 0 .58.24.58.56a.57.57 0 0 1-.58.56h-1.17a.57.57 0 0 1-.58-.56c0-.32.26-.57.58-.57h1.17z" />
</svg>
